<svg width="5191" height="6136" viewBox="0 0 5191 6136" fill="none" xmlns="http://www.w3.org/2000/svg">
<path d="M524.605 1082V718.364H601.487V878.697H606.281L737.141 718.364H829.293L694.349 881.183L830.891 1082H738.916L639.307 932.497L601.487 978.662V1082H524.605ZM861.697 1018.08V957.533L1013.51 718.364H1065.71V802.17H1034.81L939.112 953.626V956.467H1154.84V1018.08H861.697ZM1036.24 1082V999.614L1037.66 972.803V718.364H1109.74V1082H1036.24ZM1229.51 1124.97V675.572H1369.6V732.036H1302.66V1068.33H1369.6V1124.97H1229.51ZM1746.95 900.182C1746.95 939.836 1739.43 973.572 1724.4 1001.39C1709.49 1029.21 1689.13 1050.45 1663.32 1065.13C1637.63 1079.69 1608.75 1086.97 1576.67 1086.97C1544.36 1086.97 1515.36 1079.63 1489.67 1064.95C1463.98 1050.28 1443.68 1029.03 1428.77 1001.21C1413.85 973.394 1406.4 939.718 1406.4 900.182C1406.4 860.527 1413.85 826.792 1428.77 798.974C1443.68 771.157 1463.98 749.969 1489.67 735.409C1515.36 720.731 1544.36 713.392 1576.67 713.392C1608.75 713.392 1637.63 720.731 1663.32 735.409C1689.13 749.969 1709.49 771.157 1724.4 798.974C1739.43 826.792 1746.95 860.527 1746.95 900.182ZM1669 900.182C1669 874.495 1665.16 852.833 1657.46 835.196C1649.89 817.559 1639.17 804.183 1625.32 795.068C1611.47 785.954 1595.26 781.396 1576.67 781.396C1558.09 781.396 1541.87 785.954 1528.02 795.068C1514.17 804.183 1503.4 817.559 1495.71 835.196C1488.13 852.833 1484.34 874.495 1484.34 900.182C1484.34 925.868 1488.13 947.53 1495.71 965.168C1503.4 982.805 1514.17 996.181 1528.02 1005.3C1541.87 1014.41 1558.09 1018.97 1576.67 1018.97C1595.26 1018.97 1611.47 1014.41 1625.32 1005.3C1639.17 996.181 1649.89 982.805 1657.46 965.168C1665.16 947.53 1669 925.868 1669 900.182ZM2108.06 718.364V1082H2041.65L1883.45 853.129H1880.78V1082H1803.9V718.364H1871.37L2028.33 947.057H2031.53V718.364H2108.06ZM2186.85 900.182C2186.85 856.148 2192.71 815.606 2204.43 778.555C2216.26 741.505 2234.31 707.178 2258.58 675.572H2330.85C2321.61 687.291 2313.03 701.614 2305.1 718.541C2297.17 735.35 2290.24 753.816 2284.33 773.939C2278.41 794.062 2273.79 814.895 2270.48 836.439C2267.16 857.864 2265.51 879.112 2265.51 900.182C2265.51 928.236 2268.35 956.586 2274.03 985.232C2279.83 1013.76 2287.64 1040.27 2297.47 1064.78C2307.41 1089.28 2318.54 1109.34 2330.85 1124.97H2258.58C2234.31 1093.36 2216.26 1059.04 2204.43 1021.99C2192.71 984.936 2186.85 944.334 2186.85 900.182ZM2573.43 822.945C2572.01 808.622 2565.92 797.495 2555.14 789.564C2544.37 781.633 2529.75 777.668 2511.29 777.668C2498.74 777.668 2488.15 779.443 2479.51 782.994C2470.86 786.427 2464.24 791.221 2459.62 797.376C2455.12 803.532 2452.87 810.516 2452.87 818.328C2452.64 824.839 2454 830.52 2456.96 835.374C2460.03 840.227 2464.24 844.429 2469.56 847.98C2474.89 851.413 2481.04 854.431 2488.03 857.036C2495.01 859.521 2502.47 861.652 2510.4 863.428L2543.07 871.24C2558.93 874.791 2573.49 879.526 2586.75 885.445C2600.01 891.363 2611.49 898.643 2621.2 907.284C2630.9 915.925 2638.42 926.105 2643.75 937.824C2649.19 949.543 2651.97 962.978 2652.09 978.129C2651.97 1000.38 2646.29 1019.68 2635.05 1036.01C2623.92 1052.23 2607.82 1064.84 2586.75 1073.83C2565.8 1082.71 2540.53 1087.15 2510.93 1087.15C2481.58 1087.15 2456.01 1082.65 2434.23 1073.65C2412.57 1064.66 2395.64 1051.34 2383.45 1033.7C2371.37 1015.95 2365.04 993.991 2364.45 967.831H2438.85C2439.67 980.023 2443.17 990.203 2449.32 998.371C2455.59 1006.42 2463.94 1012.52 2474.36 1016.66C2484.89 1020.68 2496.79 1022.7 2510.05 1022.7C2523.07 1022.7 2534.37 1020.8 2543.96 1017.01C2553.67 1013.23 2561.18 1007.96 2566.51 1001.21C2571.84 994.464 2574.5 986.711 2574.5 977.952C2574.5 969.784 2572.07 962.919 2567.22 957.355C2562.48 951.792 2555.5 947.057 2546.27 943.151C2537.15 939.244 2525.97 935.693 2512.71 932.497L2473.11 922.554C2442.46 915.097 2418.25 903.437 2400.49 887.575C2382.74 871.714 2373.92 850.348 2374.04 823.477C2373.92 801.46 2379.78 782.225 2391.62 765.771C2403.57 749.318 2419.96 736.474 2440.8 727.241C2461.63 718.009 2485.31 713.392 2511.82 713.392C2538.81 713.392 2562.37 718.009 2582.49 727.241C2602.73 736.474 2618.47 749.318 2629.72 765.771C2640.96 782.225 2646.76 801.283 2647.12 822.945H2573.43ZM3037.97 900.182C3037.97 939.836 3030.45 973.572 3015.42 1001.39C3000.5 1029.21 2980.14 1050.45 2954.34 1065.13C2928.65 1079.69 2899.77 1086.97 2867.69 1086.97C2835.37 1086.97 2806.37 1079.63 2780.69 1064.95C2755 1050.28 2734.7 1029.03 2719.78 1001.21C2704.87 973.394 2697.41 939.718 2697.41 900.182C2697.41 860.527 2704.87 826.792 2719.78 798.974C2734.7 771.157 2755 749.969 2780.69 735.409C2806.37 720.731 2835.37 713.392 2867.69 713.392C2899.77 713.392 2928.65 720.731 2954.34 735.409C2980.14 749.969 3000.5 771.157 3015.42 798.974C3030.45 826.792 3037.97 860.527 3037.97 900.182ZM2960.02 900.182C2960.02 874.495 2956.17 852.833 2948.48 835.196C2940.9 817.559 2930.19 804.183 2916.34 795.068C2902.49 785.954 2886.27 781.396 2867.69 781.396C2849.1 781.396 2832.89 785.954 2819.04 795.068C2805.19 804.183 2794.42 817.559 2786.72 835.196C2779.15 852.833 2775.36 874.495 2775.36 900.182C2775.36 925.868 2779.15 947.53 2786.72 965.168C2794.42 982.805 2805.19 996.181 2819.04 1005.3C2832.89 1014.41 2849.1 1018.97 2867.69 1018.97C2886.27 1018.97 2902.49 1014.41 2916.34 1005.3C2930.19 996.181 2940.9 982.805 2948.48 965.168C2956.17 947.53 2960.02 925.868 2960.02 900.182ZM3227.2 1086.97C3200.68 1086.97 3177.07 1082.41 3156.35 1073.3C3135.76 1064.07 3119.48 1051.4 3107.52 1035.3C3095.69 1019.09 3089.59 1000.38 3089.24 979.195H3166.65C3167.12 988.072 3170.02 995.885 3175.35 1002.63C3180.8 1009.26 3188.02 1014.41 3197.01 1018.08C3206.01 1021.75 3216.13 1023.58 3227.38 1023.58C3239.09 1023.58 3249.45 1021.51 3258.45 1017.37C3267.44 1013.23 3274.49 1007.49 3279.58 1000.15C3284.67 992.807 3287.21 984.344 3287.21 974.756C3287.21 965.049 3284.49 956.467 3279.04 949.01C3273.72 941.434 3266.02 935.516 3255.96 931.254C3246.02 926.993 3234.18 924.862 3220.45 924.862H3186.54V868.399H3220.45C3232.05 868.399 3242.29 866.387 3251.17 862.362C3260.16 858.338 3267.15 852.774 3272.12 845.672C3277.09 838.451 3279.58 830.047 3279.58 820.459C3279.58 811.344 3277.39 803.354 3273.01 796.489C3268.75 789.505 3262.71 784.06 3254.9 780.153C3247.2 776.247 3238.21 774.294 3227.91 774.294C3217.49 774.294 3207.96 776.188 3199.32 779.976C3190.68 783.645 3183.76 788.913 3178.55 795.778C3173.34 802.644 3170.56 810.693 3170.2 819.926H3096.52C3096.87 798.974 3102.85 780.509 3114.45 764.528C3126.05 748.548 3141.67 736.06 3161.32 727.064C3181.09 717.949 3203.4 713.392 3228.26 713.392C3253.36 713.392 3275.32 717.949 3294.14 727.064C3312.96 736.178 3327.58 748.489 3337.99 763.996C3348.53 779.384 3353.74 796.666 3353.62 815.842C3353.74 836.202 3347.4 853.188 3334.62 866.801C3321.95 880.414 3305.44 889.055 3285.08 892.724V895.565C3311.83 898.998 3332.19 908.29 3346.16 923.442C3360.25 938.475 3367.23 957.296 3367.11 979.905C3367.23 1000.62 3361.25 1019.03 3349.18 1035.12C3337.22 1051.22 3320.71 1063.89 3299.64 1073.12C3278.57 1082.36 3254.42 1086.97 3227.2 1086.97ZM3550.57 900.182C3550.57 944.334 3544.65 984.936 3532.82 1021.99C3521.1 1059.04 3503.11 1093.36 3478.84 1124.97H3406.57C3415.81 1113.25 3424.39 1098.93 3432.32 1082C3440.25 1065.07 3447.18 1046.61 3453.09 1026.6C3459.01 1006.48 3463.63 985.646 3466.94 964.102C3470.26 942.559 3471.92 921.252 3471.92 900.182C3471.92 872.128 3469.02 843.837 3463.21 815.31C3457.53 786.664 3449.72 760.149 3439.78 735.764C3429.95 711.261 3418.88 691.197 3406.57 675.572H3478.84C3503.11 707.178 3521.1 741.505 3532.82 778.555C3544.65 815.606 3550.57 856.148 3550.57 900.182ZM3626.97 1082V1026.6L3756.41 906.751C3767.41 896.098 3776.65 886.51 3784.1 877.987C3791.68 869.464 3797.42 861.119 3801.33 852.952C3805.23 844.666 3807.19 835.729 3807.19 826.141C3807.19 815.487 3804.76 806.313 3799.91 798.619C3795.05 790.807 3788.42 784.829 3780.02 780.686C3771.62 776.425 3762.09 774.294 3751.43 774.294C3740.31 774.294 3730.6 776.543 3722.31 781.041C3714.03 785.539 3707.64 791.991 3703.14 800.395C3698.64 808.799 3696.39 818.802 3696.39 830.402H3623.42C3623.42 806.609 3628.8 785.954 3639.57 768.435C3650.34 750.916 3665.44 737.362 3684.85 727.774C3704.26 718.186 3726.64 713.392 3751.97 713.392C3778.01 713.392 3800.68 718.009 3819.97 727.241C3839.38 736.356 3854.48 749.022 3865.25 765.239C3876.02 781.455 3881.41 800.04 3881.41 820.991C3881.41 834.723 3878.68 848.276 3873.24 861.652C3867.91 875.028 3858.38 889.884 3844.65 906.219C3830.92 922.436 3811.57 941.908 3786.59 964.635L3733.5 1016.66V1019.14H3886.2V1082H3626.97ZM4064.07 675.572V1124.97H3923.97V1068.33H3990.91V732.036H3923.97V675.572H4064.07ZM4146.5 1082V1026.6L4275.94 906.751C4286.95 896.098 4296.18 886.51 4303.64 877.987C4311.21 869.464 4316.95 861.119 4320.86 852.952C4324.76 844.666 4326.72 835.729 4326.72 826.141C4326.72 815.487 4324.29 806.313 4319.44 798.619C4314.58 790.807 4307.96 784.829 4299.55 780.686C4291.15 776.425 4281.62 774.294 4270.97 774.294C4259.84 774.294 4250.13 776.543 4241.85 781.041C4233.56 785.539 4227.17 791.991 4222.67 800.395C4218.17 808.799 4215.92 818.802 4215.92 830.402H4142.95C4142.95 806.609 4148.33 785.954 4159.1 768.435C4169.88 750.916 4184.97 737.362 4204.38 727.774C4223.79 718.186 4246.17 713.392 4271.5 713.392C4297.54 713.392 4320.21 718.009 4339.5 727.241C4358.92 736.356 4374.01 749.022 4384.78 765.239C4395.55 781.455 4400.94 800.04 4400.94 820.991C4400.94 834.723 4398.21 848.276 4392.77 861.652C4387.44 875.028 4377.91 889.884 4364.18 906.219C4350.45 922.436 4331.1 941.908 4306.12 964.635L4253.03 1016.66V1019.14H4405.73V1082H4146.5Z" fill="#006CA9"/>
<path d="M524.605 2631V2267.36H601.487V2427.7H606.281L737.141 2267.36H829.293L694.349 2430.18L830.891 2631H738.916L639.307 2481.5L601.487 2527.66V2631H524.605ZM861.697 2567.08V2506.53L1013.51 2267.36H1065.71V2351.17H1034.81L939.112 2502.63V2505.47H1154.84V2567.08H861.697ZM1036.24 2631V2548.61L1037.66 2521.8V2267.36H1109.74V2631H1036.24ZM1542.36 2449.18C1542.36 2488.84 1534.84 2522.57 1519.81 2550.39C1504.9 2578.21 1484.54 2599.45 1458.73 2614.13C1433.04 2628.69 1404.16 2635.97 1372.08 2635.97C1339.77 2635.97 1310.77 2628.63 1285.08 2613.95C1259.39 2599.28 1239.09 2578.03 1224.18 2550.21C1209.26 2522.39 1201.81 2488.72 1201.81 2449.18C1201.81 2409.53 1209.26 2375.79 1224.18 2347.97C1239.09 2320.16 1259.39 2298.97 1285.08 2284.41C1310.77 2269.73 1339.77 2262.39 1372.08 2262.39C1404.16 2262.39 1433.04 2269.73 1458.73 2284.41C1484.54 2298.97 1504.9 2320.16 1519.81 2347.97C1534.84 2375.79 1542.36 2409.53 1542.36 2449.18ZM1464.41 2449.18C1464.41 2423.5 1460.57 2401.83 1452.87 2384.2C1445.3 2366.56 1434.58 2353.18 1420.73 2344.07C1406.88 2334.95 1390.67 2330.4 1372.08 2330.4C1353.5 2330.4 1337.28 2334.95 1323.43 2344.07C1309.58 2353.18 1298.81 2366.56 1291.12 2384.2C1283.54 2401.83 1279.75 2423.5 1279.75 2449.18C1279.75 2474.87 1283.54 2496.53 1291.12 2514.17C1298.81 2531.8 1309.58 2545.18 1323.43 2554.3C1337.28 2563.41 1353.5 2567.97 1372.08 2567.97C1390.67 2567.97 1406.88 2563.41 1420.73 2554.3C1434.58 2545.18 1445.3 2531.8 1452.87 2514.17C1460.57 2496.53 1464.41 2474.87 1464.41 2449.18ZM1597.18 2631V2575.6L1726.62 2455.75C1737.63 2445.1 1746.86 2435.51 1754.32 2426.99C1761.9 2418.46 1767.64 2410.12 1771.54 2401.95C1775.45 2393.67 1777.4 2384.73 1777.4 2375.14C1777.4 2364.49 1774.98 2355.31 1770.12 2347.62C1765.27 2339.81 1758.64 2333.83 1750.24 2329.69C1741.83 2325.42 1732.3 2323.29 1721.65 2323.29C1710.52 2323.29 1700.82 2325.54 1692.53 2330.04C1684.24 2334.54 1677.85 2340.99 1673.35 2349.39C1668.86 2357.8 1666.61 2367.8 1666.61 2379.4H1593.63C1593.63 2355.61 1599.02 2334.95 1609.79 2317.43C1620.56 2299.92 1635.65 2286.36 1655.06 2276.77C1674.48 2267.19 1696.85 2262.39 1722.18 2262.39C1748.22 2262.39 1770.89 2267.01 1790.19 2276.24C1809.6 2285.36 1824.69 2298.02 1835.46 2314.24C1846.23 2330.46 1851.62 2349.04 1851.62 2369.99C1851.62 2383.72 1848.9 2397.28 1843.45 2410.65C1838.13 2424.03 1828.6 2438.88 1814.87 2455.22C1801.14 2471.44 1781.78 2490.91 1756.81 2513.63L1703.72 2565.66V2568.14H1856.41V2631H1597.18ZM2218.41 2267.36V2631H2152L1993.8 2402.13H1991.14V2631H1914.25V2267.36H1981.73L2138.69 2496.06H2141.88V2267.36H2218.41ZM2279.8 2631V2575.6L2409.24 2455.75C2420.25 2445.1 2429.48 2435.51 2436.94 2426.99C2444.51 2418.46 2450.25 2410.12 2454.16 2401.95C2458.07 2393.67 2460.02 2384.73 2460.02 2375.14C2460.02 2364.49 2457.59 2355.31 2452.74 2347.62C2447.89 2339.81 2441.26 2333.83 2432.85 2329.69C2424.45 2325.42 2414.92 2323.29 2404.27 2323.29C2393.14 2323.29 2383.43 2325.54 2375.15 2330.04C2366.86 2334.54 2360.47 2340.99 2355.97 2349.39C2351.47 2357.8 2349.22 2367.8 2349.22 2379.4H2276.25C2276.25 2355.61 2281.63 2334.95 2292.41 2317.43C2303.18 2299.92 2318.27 2286.36 2337.68 2276.77C2357.1 2267.19 2379.47 2262.39 2404.8 2262.39C2430.84 2262.39 2453.51 2267.01 2472.8 2276.24C2492.22 2285.36 2507.31 2298.02 2518.08 2314.24C2528.85 2330.46 2534.24 2349.04 2534.24 2369.99C2534.24 2383.72 2531.52 2397.28 2526.07 2410.65C2520.74 2424.03 2511.21 2438.88 2497.48 2455.22C2483.75 2471.44 2464.4 2490.91 2439.42 2513.63L2386.33 2565.66V2568.14H2539.03V2631H2279.8ZM2612.14 2449.18C2612.14 2405.15 2618 2364.61 2629.72 2327.56C2641.56 2290.51 2659.61 2256.18 2683.87 2224.57H2756.14C2746.91 2236.29 2738.32 2250.61 2730.39 2267.54C2722.46 2284.35 2715.54 2302.82 2709.62 2322.94C2703.7 2343.06 2699.08 2363.9 2695.77 2385.44C2692.46 2406.86 2690.8 2428.11 2690.8 2449.18C2690.8 2477.24 2693.64 2505.59 2699.32 2534.23C2705.12 2562.76 2712.93 2589.27 2722.76 2613.78C2732.7 2638.28 2743.83 2658.34 2756.14 2673.97H2683.87C2659.61 2642.36 2641.56 2608.04 2629.72 2570.99C2618 2533.94 2612.14 2493.33 2612.14 2449.18ZM2998.73 2371.94C2997.31 2357.62 2991.21 2346.49 2980.44 2338.56C2969.67 2330.63 2955.05 2326.67 2936.58 2326.67C2924.03 2326.67 2913.44 2328.44 2904.8 2331.99C2896.16 2335.43 2889.53 2340.22 2884.91 2346.38C2880.41 2352.53 2878.17 2359.52 2878.17 2367.33C2877.93 2373.84 2879.29 2379.52 2882.25 2384.37C2885.33 2389.23 2889.53 2393.43 2894.86 2396.98C2900.18 2400.41 2906.34 2403.43 2913.32 2406.04C2920.31 2408.52 2927.76 2410.65 2935.69 2412.43L2968.36 2420.24C2984.23 2423.79 2998.79 2428.53 3012.04 2434.44C3025.3 2440.36 3036.78 2447.64 3046.49 2456.28C3056.2 2464.93 3063.71 2475.11 3069.04 2486.82C3074.48 2498.54 3077.27 2511.98 3077.38 2527.13C3077.27 2549.38 3071.58 2568.68 3060.34 2585.01C3049.21 2601.23 3033.11 2613.84 3012.04 2622.83C2991.09 2631.71 2965.82 2636.15 2936.23 2636.15C2906.87 2636.15 2881.3 2631.65 2859.52 2622.65C2837.86 2613.66 2820.93 2600.34 2808.74 2582.7C2796.67 2564.95 2790.33 2542.99 2789.74 2516.83H2864.14C2864.97 2529.02 2868.46 2539.2 2874.61 2547.37C2880.89 2555.42 2889.23 2561.52 2899.65 2565.66C2910.18 2569.68 2922.08 2571.7 2935.34 2571.7C2948.36 2571.7 2959.66 2569.8 2969.25 2566.01C2978.96 2562.23 2986.47 2556.96 2991.8 2550.21C2997.13 2543.46 2999.79 2535.71 2999.79 2526.95C2999.79 2518.78 2997.36 2511.92 2992.51 2506.36C2987.78 2500.79 2980.79 2496.06 2971.56 2492.15C2962.45 2488.24 2951.26 2484.69 2938 2481.5L2898.41 2471.55C2867.75 2464.1 2843.54 2452.44 2825.79 2436.58C2808.03 2420.71 2799.21 2399.35 2799.33 2372.48C2799.21 2350.46 2805.07 2331.22 2816.91 2314.77C2828.86 2298.32 2845.26 2285.47 2866.09 2276.24C2886.92 2267.01 2910.6 2262.39 2937.11 2262.39C2964.1 2262.39 2987.66 2267.01 3007.78 2276.24C3028.02 2285.47 3043.77 2298.32 3055.01 2314.77C3066.26 2331.22 3072.06 2350.28 3072.41 2371.94H2998.73ZM3463.26 2449.18C3463.26 2488.84 3455.74 2522.57 3440.71 2550.39C3425.79 2578.21 3405.43 2599.45 3379.63 2614.13C3353.94 2628.69 3325.06 2635.97 3292.98 2635.97C3260.67 2635.97 3231.67 2628.63 3205.98 2613.95C3180.29 2599.28 3159.99 2578.03 3145.08 2550.21C3130.16 2522.39 3122.71 2488.72 3122.71 2449.18C3122.71 2409.53 3130.16 2375.79 3145.08 2347.97C3159.99 2320.16 3180.29 2298.97 3205.98 2284.41C3231.67 2269.73 3260.67 2262.39 3292.98 2262.39C3325.06 2262.39 3353.94 2269.73 3379.63 2284.41C3405.43 2298.97 3425.79 2320.16 3440.71 2347.97C3455.74 2375.79 3463.26 2409.53 3463.26 2449.18ZM3385.31 2449.18C3385.31 2423.5 3381.46 2401.83 3373.77 2384.2C3366.19 2366.56 3355.48 2353.18 3341.63 2344.07C3327.78 2334.95 3311.57 2330.4 3292.98 2330.4C3274.4 2330.4 3258.18 2334.95 3244.33 2344.07C3230.48 2353.18 3219.71 2366.56 3212.02 2384.2C3204.44 2401.83 3200.65 2423.5 3200.65 2449.18C3200.65 2474.87 3204.44 2496.53 3212.02 2514.17C3219.71 2531.8 3230.48 2545.18 3244.33 2554.3C3258.18 2563.41 3274.4 2567.97 3292.98 2567.97C3311.57 2567.97 3327.78 2563.41 3341.63 2554.3C3355.48 2545.18 3366.19 2531.8 3373.77 2514.17C3381.46 2496.53 3385.31 2474.87 3385.31 2449.18ZM3652.49 2635.97C3625.98 2635.97 3602.36 2631.41 3581.65 2622.3C3561.05 2613.07 3544.77 2600.4 3532.82 2584.3C3520.98 2568.09 3514.88 2549.38 3514.53 2528.19H3591.94C3592.42 2537.07 3595.32 2544.88 3600.64 2551.63C3606.09 2558.26 3613.31 2563.41 3622.31 2567.08C3631.3 2570.75 3641.42 2572.58 3652.67 2572.58C3664.39 2572.58 3674.74 2570.51 3683.74 2566.37C3692.74 2562.23 3699.78 2556.49 3704.87 2549.15C3709.96 2541.81 3712.5 2533.34 3712.5 2523.76C3712.5 2514.05 3709.78 2505.47 3704.34 2498.01C3699.01 2490.43 3691.32 2484.52 3681.25 2480.25C3671.31 2475.99 3659.47 2473.86 3645.74 2473.86H3611.83V2417.4H3645.74C3657.34 2417.4 3667.58 2415.39 3676.46 2411.36C3685.46 2407.34 3692.44 2401.77 3697.41 2394.67C3702.38 2387.45 3704.87 2379.05 3704.87 2369.46C3704.87 2360.34 3702.68 2352.35 3698.3 2345.49C3694.04 2338.5 3688 2333.06 3680.19 2329.15C3672.5 2325.25 3663.5 2323.29 3653.2 2323.29C3642.78 2323.29 3633.26 2325.19 3624.61 2328.98C3615.97 2332.65 3609.05 2337.91 3603.84 2344.78C3598.63 2351.64 3595.85 2359.69 3595.49 2368.93H3521.81C3522.16 2347.97 3528.14 2329.51 3539.74 2313.53C3551.34 2297.55 3566.97 2285.06 3586.62 2276.06C3606.38 2266.95 3628.7 2262.39 3653.56 2262.39C3678.65 2262.39 3700.61 2266.95 3719.43 2276.06C3738.25 2285.18 3752.87 2297.49 3763.29 2313C3773.82 2328.38 3779.03 2345.67 3778.91 2364.84C3779.03 2385.2 3772.7 2402.19 3759.91 2415.8C3747.25 2429.41 3730.73 2438.05 3710.37 2441.72V2444.57C3737.13 2448 3757.49 2457.29 3771.45 2472.44C3785.54 2487.47 3792.52 2506.3 3792.41 2528.9C3792.52 2549.62 3786.55 2568.03 3774.47 2584.12C3762.52 2600.22 3746 2612.89 3724.93 2622.12C3703.86 2631.36 3679.72 2635.97 3652.49 2635.97ZM3975.87 2449.18C3975.87 2493.33 3969.95 2533.94 3958.11 2570.99C3946.39 2608.04 3928.4 2642.36 3904.13 2673.97H3831.87C3841.1 2662.25 3849.68 2647.93 3857.61 2631C3865.54 2614.07 3872.47 2595.61 3878.39 2575.6C3884.31 2555.48 3888.92 2534.65 3892.24 2513.1C3895.55 2491.56 3897.21 2470.25 3897.21 2449.18C3897.21 2421.13 3894.31 2392.84 3888.51 2364.31C3882.83 2335.66 3875.01 2309.15 3865.07 2284.76C3855.25 2260.26 3844.18 2240.2 3831.87 2224.57H3904.13C3928.4 2256.18 3946.39 2290.51 3958.11 2327.56C3969.95 2364.61 3975.87 2405.15 3975.87 2449.18ZM4046.76 2567.08V2506.53L4198.57 2267.36H4250.77V2351.17H4219.87L4124.17 2502.63V2505.47H4339.9V2567.08H4046.76ZM4221.29 2631V2548.61L4222.71 2521.8V2267.36H4294.8V2631H4221.29Z" fill="#737370"/>
<path d="M524.605 3640V3276.36H601.487V3436.7H606.281L737.141 3276.36H829.293L694.349 3439.18L830.891 3640H738.916L639.307 3490.5L601.487 3536.66V3640H524.605ZM861.697 3576.08V3515.53L1013.51 3276.36H1065.71V3360.17H1034.81L939.112 3511.63V3514.47H1154.84V3576.08H861.697ZM1036.24 3640V3557.61L1037.66 3530.8V3276.36H1109.74V3640H1036.24ZM1542.36 3458.18C1542.36 3497.84 1534.84 3531.57 1519.81 3559.39C1504.9 3587.21 1484.54 3608.45 1458.73 3623.13C1433.04 3637.69 1404.16 3644.97 1372.08 3644.97C1339.77 3644.97 1310.77 3637.63 1285.08 3622.95C1259.39 3608.28 1239.09 3587.03 1224.18 3559.21C1209.26 3531.39 1201.81 3497.72 1201.81 3458.18C1201.81 3418.53 1209.26 3384.79 1224.18 3356.97C1239.09 3329.16 1259.39 3307.97 1285.08 3293.41C1310.77 3278.73 1339.77 3271.39 1372.08 3271.39C1404.16 3271.39 1433.04 3278.73 1458.73 3293.41C1484.54 3307.97 1504.9 3329.16 1519.81 3356.97C1534.84 3384.79 1542.36 3418.53 1542.36 3458.18ZM1464.41 3458.18C1464.41 3432.5 1460.57 3410.83 1452.87 3393.2C1445.3 3375.56 1434.58 3362.18 1420.73 3353.07C1406.88 3343.95 1390.67 3339.4 1372.08 3339.4C1353.5 3339.4 1337.28 3343.95 1323.43 3353.07C1309.58 3362.18 1298.81 3375.56 1291.12 3393.2C1283.54 3410.83 1279.75 3432.5 1279.75 3458.18C1279.75 3483.87 1283.54 3505.53 1291.12 3523.17C1298.81 3540.8 1309.58 3554.18 1323.43 3563.3C1337.28 3572.41 1353.5 3576.97 1372.08 3576.97C1390.67 3576.97 1406.88 3572.41 1420.73 3563.3C1434.58 3554.18 1445.3 3540.8 1452.87 3523.17C1460.57 3505.53 1464.41 3483.87 1464.41 3458.18ZM1597.18 3640V3584.6L1726.62 3464.75C1737.63 3454.1 1746.86 3444.51 1754.32 3435.99C1761.9 3427.46 1767.64 3419.12 1771.54 3410.95C1775.45 3402.67 1777.4 3393.73 1777.4 3384.14C1777.4 3373.49 1774.98 3364.31 1770.12 3356.62C1765.27 3348.81 1758.64 3342.83 1750.24 3338.69C1741.83 3334.42 1732.3 3332.29 1721.65 3332.29C1710.52 3332.29 1700.82 3334.54 1692.53 3339.04C1684.24 3343.54 1677.85 3349.99 1673.35 3358.39C1668.86 3366.8 1666.61 3376.8 1666.61 3388.4H1593.63C1593.63 3364.61 1599.02 3343.95 1609.79 3326.43C1620.56 3308.92 1635.65 3295.36 1655.06 3285.77C1674.48 3276.19 1696.85 3271.39 1722.18 3271.39C1748.22 3271.39 1770.89 3276.01 1790.19 3285.24C1809.6 3294.36 1824.69 3307.02 1835.46 3323.24C1846.23 3339.46 1851.62 3358.04 1851.62 3378.99C1851.62 3392.72 1848.9 3406.28 1843.45 3419.65C1838.13 3433.03 1828.6 3447.88 1814.87 3464.22C1801.14 3480.44 1781.78 3499.91 1756.81 3522.63L1703.72 3574.66V3577.14H1856.41V3640H1597.18ZM2218.41 3276.36V3640H2152L1993.8 3411.13H1991.14V3640H1914.25V3276.36H1981.73L2138.69 3505.06H2141.88V3276.36H2218.41ZM2279.8 3640V3584.6L2409.24 3464.75C2420.25 3454.1 2429.48 3444.51 2436.94 3435.99C2444.51 3427.46 2450.25 3419.12 2454.16 3410.95C2458.07 3402.67 2460.02 3393.73 2460.02 3384.14C2460.02 3373.49 2457.59 3364.31 2452.74 3356.62C2447.89 3348.81 2441.26 3342.83 2432.85 3338.69C2424.45 3334.42 2414.92 3332.29 2404.27 3332.29C2393.14 3332.29 2383.43 3334.54 2375.15 3339.04C2366.86 3343.54 2360.47 3349.99 2355.97 3358.39C2351.47 3366.8 2349.22 3376.8 2349.22 3388.4H2276.25C2276.25 3364.61 2281.63 3343.95 2292.41 3326.43C2303.18 3308.92 2318.27 3295.36 2337.68 3285.77C2357.1 3276.19 2379.47 3271.39 2404.8 3271.39C2430.84 3271.39 2453.51 3276.01 2472.8 3285.24C2492.22 3294.36 2507.31 3307.02 2518.08 3323.24C2528.85 3339.46 2534.24 3358.04 2534.24 3378.99C2534.24 3392.72 2531.52 3406.28 2526.07 3419.65C2520.74 3433.03 2511.21 3447.88 2497.48 3464.22C2483.75 3480.44 2464.4 3499.91 2439.42 3522.63L2386.33 3574.66V3577.14H2539.03V3640H2279.8ZM2794.14 3380.94C2792.72 3366.62 2786.62 3355.49 2775.85 3347.56C2765.08 3339.63 2750.46 3335.67 2731.99 3335.67C2719.44 3335.67 2708.85 3337.44 2700.21 3340.99C2691.57 3344.43 2684.94 3349.22 2680.32 3355.38C2675.82 3361.53 2673.58 3368.52 2673.58 3376.33C2673.34 3382.84 2674.7 3388.52 2677.66 3393.37C2680.74 3398.23 2684.94 3402.43 2690.27 3405.98C2695.59 3409.41 2701.75 3412.43 2708.73 3415.04C2715.72 3417.52 2723.17 3419.65 2731.1 3421.43L2763.77 3429.24C2779.64 3432.79 2794.2 3437.53 2807.45 3443.44C2820.71 3449.36 2832.19 3456.64 2841.9 3465.28C2851.61 3473.93 2859.12 3484.11 2864.45 3495.82C2869.89 3507.54 2872.68 3520.98 2872.79 3536.13C2872.68 3558.38 2866.99 3577.68 2855.75 3594.01C2844.62 3610.23 2828.52 3622.84 2807.45 3631.83C2786.5 3640.71 2761.23 3645.15 2731.64 3645.15C2702.28 3645.15 2676.71 3640.65 2654.93 3631.65C2633.27 3622.66 2616.34 3609.34 2604.15 3591.7C2592.08 3573.95 2585.74 3551.99 2585.15 3525.83H2659.55C2660.38 3538.02 2663.87 3548.2 2670.02 3556.37C2676.3 3564.42 2684.64 3570.52 2695.06 3574.66C2705.59 3578.68 2717.49 3580.7 2730.75 3580.7C2743.77 3580.7 2755.07 3578.8 2764.66 3575.01C2774.37 3571.23 2781.88 3565.96 2787.21 3559.21C2792.54 3552.46 2795.2 3544.71 2795.2 3535.95C2795.2 3527.78 2792.78 3520.92 2787.92 3515.36C2783.19 3509.79 2776.2 3505.06 2766.97 3501.15C2757.86 3497.24 2746.67 3493.69 2733.41 3490.5L2693.82 3480.55C2663.16 3473.1 2638.95 3461.44 2621.2 3445.58C2603.44 3429.71 2594.62 3408.35 2594.74 3381.48C2594.62 3359.46 2600.48 3340.22 2612.32 3323.77C2624.27 3307.32 2640.67 3294.47 2661.5 3285.24C2682.33 3276.01 2706.01 3271.39 2732.52 3271.39C2759.51 3271.39 2783.07 3276.01 2803.19 3285.24C2823.43 3294.47 2839.18 3307.32 2850.42 3323.77C2861.67 3340.22 2867.47 3359.28 2867.82 3380.94H2794.14ZM2916.87 3576.08V3515.53L3068.68 3276.36H3120.89V3360.17H3089.99L2994.29 3511.63V3514.47H3210.02V3576.08H2916.87ZM3091.41 3640V3557.61L3092.83 3530.8V3276.36H3164.92V3640H3091.41ZM3597.54 3458.18C3597.54 3497.84 3590.02 3531.57 3574.99 3559.39C3560.07 3587.21 3539.71 3608.45 3513.91 3623.13C3488.22 3637.69 3459.34 3644.97 3427.26 3644.97C3394.94 3644.97 3365.94 3637.63 3340.26 3622.95C3314.57 3608.28 3294.27 3587.03 3279.35 3559.21C3264.44 3531.39 3256.98 3497.72 3256.98 3458.18C3256.98 3418.53 3264.44 3384.79 3279.35 3356.97C3294.27 3329.16 3314.57 3307.97 3340.26 3293.41C3365.94 3278.73 3394.94 3271.39 3427.26 3271.39C3459.34 3271.39 3488.22 3278.73 3513.91 3293.41C3539.71 3307.97 3560.07 3329.16 3574.99 3356.97C3590.02 3384.79 3597.54 3418.53 3597.54 3458.18ZM3519.59 3458.18C3519.59 3432.5 3515.74 3410.83 3508.05 3393.2C3500.47 3375.56 3489.76 3362.18 3475.91 3353.07C3462.06 3343.95 3445.84 3339.4 3427.26 3339.4C3408.68 3339.4 3392.46 3343.95 3378.61 3353.07C3364.76 3362.18 3353.99 3375.56 3346.29 3393.2C3338.72 3410.83 3334.93 3432.5 3334.93 3458.18C3334.93 3483.87 3338.72 3505.53 3346.29 3523.17C3353.99 3540.8 3364.76 3554.18 3378.61 3563.3C3392.46 3572.41 3408.68 3576.97 3427.26 3576.97C3445.84 3576.97 3462.06 3572.41 3475.91 3563.3C3489.76 3554.18 3500.47 3540.8 3508.05 3523.17C3515.74 3505.53 3519.59 3483.87 3519.59 3458.18ZM3810.56 3276.36V3640H3733.68V3349.34H3731.55L3648.27 3401.54V3333.36L3738.29 3276.36H3810.56ZM3896.99 3640V3584.6L4026.43 3464.75C4037.43 3454.1 4046.67 3444.51 4054.12 3435.99C4061.7 3427.46 4067.44 3419.12 4071.35 3410.95C4075.25 3402.67 4077.21 3393.73 4077.21 3384.14C4077.21 3373.49 4074.78 3364.31 4069.93 3356.62C4065.07 3348.81 4058.44 3342.83 4050.04 3338.69C4041.64 3334.42 4032.11 3332.29 4021.45 3332.29C4010.33 3332.29 4000.62 3334.54 3992.33 3339.04C3984.05 3343.54 3977.66 3349.99 3973.16 3358.39C3968.66 3366.8 3966.41 3376.8 3966.41 3388.4H3893.44C3893.44 3364.61 3898.82 3343.95 3909.59 3326.43C3920.36 3308.92 3935.46 3295.36 3954.87 3285.77C3974.28 3276.19 3996.65 3271.39 4021.99 3271.39C4048.03 3271.39 4070.7 3276.01 4089.99 3285.24C4109.4 3294.36 4124.5 3307.02 4135.27 3323.24C4146.04 3339.46 4151.43 3358.04 4151.43 3378.99C4151.43 3392.72 4148.7 3406.28 4143.26 3419.65C4137.93 3433.03 4128.4 3447.88 4114.67 3464.22C4100.94 3480.44 4081.59 3499.91 4056.61 3522.63L4003.52 3574.66V3577.14H4156.22V3640H3896.99Z" fill="#737370"/>
<path d="M545.912 6094.01V5644.62H686.004V5701.08H619.065V6037.37H686.004V6094.01H545.912ZM840.834 5765V5726.65C840.834 5715.76 842.964 5704.63 847.226 5693.27C851.487 5681.9 857.11 5671.19 864.094 5661.13C871.078 5651.07 878.653 5642.66 886.821 5635.92L920.202 5655.62C913.573 5666.04 908.128 5676.93 903.866 5688.3C899.723 5699.66 897.652 5712.32 897.652 5726.29V5765H840.834ZM930.5 5765V5726.65C930.5 5715.76 932.631 5704.63 936.892 5693.27C941.153 5681.9 946.776 5671.19 953.76 5661.13C960.744 5651.07 968.32 5642.66 976.487 5635.92L1009.87 5655.62C1003.24 5666.04 997.794 5676.93 993.533 5688.3C989.39 5699.66 987.318 5712.32 987.318 5726.29V5765H930.5ZM1055.86 6015V5651.36H1132.74V5811.7H1137.53L1268.39 5651.36H1360.54L1225.6 5814.18L1362.14 6015H1270.17L1170.56 5865.5L1132.74 5911.66V6015H1055.86ZM1462.55 5651.36V5689.72C1462.55 5700.61 1460.42 5711.73 1456.16 5723.1C1452.01 5734.34 1446.45 5745 1439.47 5755.06C1432.48 5765 1424.85 5773.46 1416.56 5780.45L1383.18 5760.74C1389.1 5751.39 1394.31 5741.03 1398.81 5729.67C1403.42 5718.3 1405.73 5705.1 1405.73 5690.07V5651.36H1462.55ZM1551.86 5651.36V5689.72C1551.86 5700.61 1549.73 5711.73 1545.47 5723.1C1541.33 5734.34 1535.76 5745 1528.78 5755.06C1521.79 5765 1514.1 5773.46 1505.7 5780.45L1472.31 5760.74C1478.35 5751.39 1483.62 5741.03 1488.12 5729.67C1492.73 5718.3 1495.04 5705.1 1495.04 5690.07V5651.36H1551.86ZM1625.41 5965.28L1623.46 5984.82C1621.92 6000.44 1618.96 6016.01 1614.58 6031.51C1610.32 6047.14 1605.82 6061.28 1601.09 6073.95C1596.47 6086.61 1592.74 6096.56 1589.9 6103.78H1540.9C1542.67 6096.79 1545.1 6087.03 1548.18 6074.48C1551.25 6062.05 1554.15 6048.08 1556.88 6032.58C1559.6 6017.07 1561.31 6001.27 1562.03 5985.17L1562.91 5965.28H1625.41ZM1790.54 5765V5726.65C1790.54 5715.76 1792.67 5704.63 1796.93 5693.27C1801.19 5681.9 1806.82 5671.19 1813.8 5661.13C1820.78 5651.07 1828.36 5642.66 1836.53 5635.92L1869.91 5655.62C1863.28 5666.04 1857.83 5676.93 1853.57 5688.3C1849.43 5699.66 1847.36 5712.32 1847.36 5726.29V5765H1790.54ZM1880.21 5765V5726.65C1880.21 5715.76 1882.34 5704.63 1886.6 5693.27C1890.86 5681.9 1896.48 5671.19 1903.47 5661.13C1910.45 5651.07 1918.03 5642.66 1926.19 5635.92L1959.57 5655.62C1952.95 5666.04 1947.5 5676.93 1943.24 5688.3C1939.1 5699.66 1937.03 5712.32 1937.03 5726.29V5765H1880.21ZM2339.72 5833.18C2339.72 5872.84 2332.21 5906.57 2317.17 5934.39C2302.26 5962.21 2281.9 5983.45 2256.09 5998.13C2230.41 6012.69 2201.53 6019.97 2169.45 6019.97C2137.13 6019.97 2108.13 6012.63 2082.44 5997.95C2056.76 5983.28 2036.46 5962.03 2021.54 5934.21C2006.63 5906.39 1999.17 5872.72 1999.17 5833.18C1999.17 5793.53 2006.63 5759.79 2021.54 5731.97C2036.46 5704.16 2056.76 5682.97 2082.44 5668.41C2108.13 5653.73 2137.13 5646.39 2169.45 5646.39C2201.53 5646.39 2230.41 5653.73 2256.09 5668.41C2281.9 5682.97 2302.26 5704.16 2317.17 5731.97C2332.21 5759.79 2339.72 5793.53 2339.72 5833.18ZM2261.78 5833.18C2261.78 5807.5 2257.93 5785.83 2250.24 5768.2C2242.66 5750.56 2231.95 5737.18 2218.1 5728.07C2204.25 5718.95 2188.03 5714.4 2169.45 5714.4C2150.86 5714.4 2134.65 5718.95 2120.8 5728.07C2106.95 5737.18 2096.18 5750.56 2088.48 5768.2C2080.91 5785.83 2077.12 5807.5 2077.12 5833.18C2077.12 5858.87 2080.91 5880.53 2088.48 5898.17C2096.18 5915.8 2106.95 5929.18 2120.8 5938.3C2134.65 5947.41 2150.86 5951.97 2169.45 5951.97C2188.03 5951.97 2204.25 5947.41 2218.1 5938.3C2231.95 5929.18 2242.66 5915.8 2250.24 5898.17C2257.93 5880.53 2261.78 5858.87 2261.78 5833.18ZM2458.64 5651.36V5689.72C2458.64 5700.61 2456.51 5711.73 2452.25 5723.1C2448.11 5734.34 2442.54 5745 2435.56 5755.06C2428.58 5765 2420.94 5773.46 2412.66 5780.45L2379.27 5760.74C2385.19 5751.39 2390.4 5741.03 2394.9 5729.67C2399.52 5718.3 2401.82 5705.1 2401.82 5690.07V5651.36H2458.64ZM2547.95 5651.36V5689.72C2547.95 5700.61 2545.82 5711.73 2541.56 5723.1C2537.42 5734.34 2531.86 5745 2524.87 5755.06C2517.89 5765 2510.19 5773.46 2501.79 5780.45L2468.41 5760.74C2474.45 5751.39 2479.71 5741.03 2484.21 5729.67C2488.83 5718.3 2491.14 5705.1 2491.14 5690.07V5651.36H2547.95ZM2621.51 5965.28L2619.55 5984.82C2618.01 6000.44 2615.06 6016.01 2610.68 6031.51C2606.41 6047.14 2601.92 6061.28 2597.18 6073.95C2592.56 6086.61 2588.84 6096.56 2586 6103.78H2536.99C2538.77 6096.79 2541.19 6087.03 2544.27 6074.48C2547.35 6062.05 2550.25 6048.08 2552.97 6032.58C2555.69 6017.07 2557.41 6001.27 2558.12 5985.17L2559.01 5965.28H2621.51ZM2786.63 5765V5726.65C2786.63 5715.76 2788.77 5704.63 2793.03 5693.27C2797.29 5681.9 2802.91 5671.19 2809.89 5661.13C2816.88 5651.07 2824.45 5642.66 2832.62 5635.92L2866 5655.62C2859.37 5666.04 2853.93 5676.93 2849.67 5688.3C2845.52 5699.66 2843.45 5712.32 2843.45 5726.29V5765H2786.63ZM2876.3 5765V5726.65C2876.3 5715.76 2878.43 5704.63 2882.69 5693.27C2886.95 5681.9 2892.58 5671.19 2899.56 5661.13C2906.54 5651.07 2914.12 5642.66 2922.29 5635.92L2955.67 5655.62C2949.04 5666.04 2943.59 5676.93 2939.33 5688.3C2935.19 5699.66 2933.12 5712.32 2933.12 5726.29V5765H2876.3ZM3198.92 5755.94C3197.5 5741.62 3191.4 5730.49 3180.63 5722.56C3169.86 5714.63 3155.24 5710.67 3136.78 5710.67C3124.23 5710.67 3113.64 5712.44 3104.99 5715.99C3096.35 5719.43 3089.72 5724.22 3085.11 5730.38C3080.61 5736.53 3078.36 5743.52 3078.36 5751.33C3078.12 5757.84 3079.48 5763.52 3082.44 5768.37C3085.52 5773.23 3089.72 5777.43 3095.05 5780.98C3100.38 5784.41 3106.53 5787.43 3113.52 5790.04C3120.5 5792.52 3127.96 5794.65 3135.89 5796.43L3168.56 5804.24C3184.42 5807.79 3198.98 5812.53 3212.24 5818.44C3225.5 5824.36 3236.98 5831.64 3246.68 5840.28C3256.39 5848.93 3263.91 5859.11 3269.23 5870.82C3274.68 5882.54 3277.46 5895.98 3277.58 5911.13C3277.46 5933.38 3271.78 5952.68 3260.53 5969.01C3249.41 5985.23 3233.31 5997.84 3212.24 6006.83C3191.29 6015.71 3166.01 6020.15 3136.42 6020.15C3107.07 6020.15 3081.5 6015.65 3059.72 6006.65C3038.06 5997.66 3021.13 5984.34 3008.94 5966.7C2996.86 5948.95 2990.53 5926.99 2989.94 5900.83H3064.33C3065.16 5913.02 3068.65 5923.2 3074.81 5931.37C3081.08 5939.42 3089.43 5945.52 3099.84 5949.66C3110.38 5953.68 3122.28 5955.7 3135.53 5955.7C3148.55 5955.7 3159.86 5953.8 3169.45 5950.01C3179.15 5946.23 3186.67 5940.96 3192 5934.21C3197.32 5927.46 3199.99 5919.71 3199.99 5910.95C3199.99 5902.78 3197.56 5895.92 3192.71 5890.36C3187.97 5884.79 3180.99 5880.06 3171.76 5876.15C3162.64 5872.24 3151.45 5868.69 3138.2 5865.5L3098.6 5855.55C3067.94 5848.1 3043.74 5836.44 3025.98 5820.58C3008.23 5804.71 2999.41 5783.35 2999.53 5756.48C2999.41 5734.46 3005.27 5715.22 3017.1 5698.77C3029.06 5682.32 3045.45 5669.47 3066.29 5660.24C3087.12 5651.01 3110.79 5646.39 3137.31 5646.39C3164.3 5646.39 3187.85 5651.01 3207.98 5660.24C3228.22 5669.47 3243.96 5682.32 3255.21 5698.77C3266.45 5715.22 3272.25 5734.28 3272.61 5755.94H3198.92ZM3391.26 5651.36V5689.72C3391.26 5700.61 3389.13 5711.73 3384.87 5723.1C3380.72 5734.34 3375.16 5745 3368.18 5755.06C3361.19 5765 3353.56 5773.46 3345.27 5780.45L3311.89 5760.74C3317.81 5751.39 3323.02 5741.03 3327.52 5729.67C3332.13 5718.3 3334.44 5705.1 3334.44 5690.07V5651.36H3391.26ZM3480.57 5651.36V5689.72C3480.57 5700.61 3478.44 5711.73 3474.18 5723.1C3470.04 5734.34 3464.47 5745 3457.49 5755.06C3450.5 5765 3442.81 5773.46 3434.41 5780.45L3401.03 5760.74C3407.06 5751.39 3412.33 5741.03 3416.83 5729.67C3421.44 5718.3 3423.75 5705.1 3423.75 5690.07V5651.36H3480.57ZM3659.77 5644.62V6094.01H3519.68V6037.37H3586.62V5701.08H3519.68V5644.62H3659.77Z" fill="#FA8F00"/>
<path d="M520.521 4303V4264.65C520.521 4253.76 522.652 4242.63 526.913 4231.27C531.175 4219.9 536.797 4209.19 543.781 4199.13C550.765 4189.07 558.341 4180.66 566.509 4173.92L599.889 4193.62C593.26 4204.04 587.815 4214.93 583.554 4226.3C579.411 4237.66 577.339 4250.32 577.339 4264.29V4303H520.521ZM610.188 4303V4264.65C610.188 4253.76 612.318 4242.63 616.58 4231.27C620.841 4219.9 626.464 4209.19 633.447 4199.13C640.431 4189.07 648.007 4180.66 656.175 4173.92L689.555 4193.62C682.927 4204.04 677.482 4214.93 673.22 4226.3C669.077 4237.66 667.006 4250.32 667.006 4264.29V4303H610.188ZM735.543 4553V4189.36H812.425V4349.7H817.219L948.078 4189.36H1040.23L905.287 4352.18L1041.83 4553H949.854L850.244 4403.5L812.425 4449.66V4553H735.543ZM1142.24 4189.36V4227.72C1142.24 4238.61 1140.11 4249.73 1135.84 4261.1C1131.7 4272.34 1126.14 4283 1119.15 4293.06C1112.17 4303 1104.54 4311.46 1096.25 4318.45L1062.87 4298.74C1068.79 4289.39 1074 4279.03 1078.49 4267.67C1083.11 4256.3 1085.42 4243.1 1085.42 4228.07V4189.36H1142.24ZM1231.55 4189.36V4227.72C1231.55 4238.61 1229.42 4249.73 1225.16 4261.1C1221.01 4272.34 1215.45 4283 1208.47 4293.06C1201.48 4303 1193.79 4311.46 1185.38 4318.45L1152 4298.74C1158.04 4289.39 1163.31 4279.03 1167.8 4267.67C1172.42 4256.3 1174.73 4243.1 1174.73 4228.07V4189.36H1231.55ZM1305.19 4510.74C1293.47 4510.74 1283.41 4506.6 1275 4498.31C1266.72 4490.03 1262.58 4479.96 1262.58 4468.13C1262.58 4456.53 1266.72 4446.58 1275 4438.3C1283.41 4430.01 1293.47 4425.87 1305.19 4425.87C1316.55 4425.87 1326.5 4430.01 1335.02 4438.3C1343.54 4446.58 1347.8 4456.53 1347.8 4468.13C1347.8 4475.94 1345.79 4483.1 1341.77 4489.61C1337.86 4496 1332.71 4501.15 1326.32 4505.06C1319.93 4508.85 1312.88 4510.74 1305.19 4510.74ZM1305.19 4332.3C1293.47 4332.3 1283.41 4328.15 1275 4319.87C1266.72 4311.58 1262.58 4301.52 1262.58 4289.68C1262.58 4278.08 1266.72 4268.2 1275 4260.03C1283.41 4251.75 1293.47 4247.6 1305.19 4247.6C1316.55 4247.6 1326.5 4251.75 1335.02 4260.03C1343.54 4268.2 1347.8 4278.08 1347.8 4289.68C1347.8 4297.61 1345.79 4304.83 1341.77 4311.35C1337.86 4317.74 1332.71 4322.83 1326.32 4326.62C1319.93 4330.4 1312.88 4332.3 1305.19 4332.3ZM1403.69 4489.08V4428.53L1555.5 4189.36H1607.7V4273.17H1576.81L1481.1 4424.63V4427.47H1696.84V4489.08H1403.69ZM1578.23 4553V4470.61L1579.65 4443.8V4189.36H1651.74V4553H1578.23ZM1824.14 4503.28L1822.19 4522.82C1820.65 4538.44 1817.69 4554.01 1813.31 4569.51C1809.05 4585.14 1804.55 4599.28 1799.82 4611.95C1795.2 4624.61 1791.47 4634.56 1788.63 4641.78H1739.63C1741.4 4634.79 1743.83 4625.03 1746.91 4612.48C1749.98 4600.05 1752.88 4586.08 1755.61 4570.58C1758.33 4555.07 1760.05 4539.27 1760.76 4523.17L1761.64 4503.28H1824.14ZM1989.27 4303V4264.65C1989.27 4253.76 1991.4 4242.63 1995.66 4231.27C1999.92 4219.9 2005.55 4209.19 2012.53 4199.13C2019.52 4189.07 2027.09 4180.66 2035.26 4173.92L2068.64 4193.62C2062.01 4204.04 2056.57 4214.93 2052.3 4226.3C2048.16 4237.66 2046.09 4250.32 2046.09 4264.29V4303H1989.27ZM2078.94 4303V4264.65C2078.94 4253.76 2081.07 4242.63 2085.33 4231.27C2089.59 4219.9 2095.21 4209.19 2102.2 4199.13C2109.18 4189.07 2116.76 4180.66 2124.92 4173.92L2158.31 4193.62C2151.68 4204.04 2146.23 4214.93 2141.97 4226.3C2137.83 4237.66 2135.76 4250.32 2135.76 4264.29V4303H2078.94ZM2538.45 4371.18C2538.45 4410.84 2530.94 4444.57 2515.9 4472.39C2500.99 4500.21 2480.63 4521.45 2454.83 4536.13C2429.14 4550.69 2400.26 4557.97 2368.18 4557.97C2335.86 4557.97 2306.86 4550.63 2281.17 4535.95C2255.49 4521.28 2235.19 4500.03 2220.27 4472.21C2205.36 4444.39 2197.9 4410.72 2197.9 4371.18C2197.9 4331.53 2205.36 4297.79 2220.27 4269.97C2235.19 4242.16 2255.49 4220.97 2281.17 4206.41C2306.86 4191.73 2335.86 4184.39 2368.18 4184.39C2400.26 4184.39 2429.14 4191.73 2454.83 4206.41C2480.63 4220.97 2500.99 4242.16 2515.9 4269.97C2530.94 4297.79 2538.45 4331.53 2538.45 4371.18ZM2460.51 4371.18C2460.51 4345.5 2456.66 4323.83 2448.97 4306.2C2441.39 4288.56 2430.68 4275.18 2416.83 4266.07C2402.98 4256.95 2386.76 4252.4 2368.18 4252.4C2349.59 4252.4 2333.38 4256.95 2319.53 4266.07C2305.68 4275.18 2294.91 4288.56 2287.21 4306.2C2279.64 4323.83 2275.85 4345.5 2275.85 4371.18C2275.85 4396.87 2279.64 4418.53 2287.21 4436.17C2294.91 4453.8 2305.68 4467.18 2319.53 4476.3C2333.38 4485.41 2349.59 4489.97 2368.18 4489.97C2386.76 4489.97 2402.98 4485.41 2416.83 4476.3C2430.68 4467.18 2441.39 4453.8 2448.97 4436.17C2456.66 4418.53 2460.51 4396.87 2460.51 4371.18ZM2657.37 4189.36V4227.72C2657.37 4238.61 2655.24 4249.73 2650.98 4261.1C2646.84 4272.34 2641.27 4283 2634.29 4293.06C2627.31 4303 2619.67 4311.46 2611.39 4318.45L2578.01 4298.74C2583.92 4289.39 2589.13 4279.03 2593.63 4267.67C2598.25 4256.3 2600.56 4243.1 2600.56 4228.07V4189.36H2657.37ZM2746.68 4189.36V4227.72C2746.68 4238.61 2744.55 4249.73 2740.29 4261.1C2736.15 4272.34 2730.59 4283 2723.6 4293.06C2716.62 4303 2708.92 4311.46 2700.52 4318.45L2667.14 4298.74C2673.18 4289.39 2678.44 4279.03 2682.94 4267.67C2687.56 4256.3 2689.87 4243.1 2689.87 4228.07V4189.36H2746.68ZM2820.33 4510.74C2808.61 4510.74 2798.55 4506.6 2790.14 4498.31C2781.86 4490.03 2777.71 4479.96 2777.71 4468.13C2777.71 4456.53 2781.86 4446.58 2790.14 4438.3C2798.55 4430.01 2808.61 4425.87 2820.33 4425.87C2831.69 4425.87 2841.63 4430.01 2850.16 4438.3C2858.68 4446.58 2862.94 4456.53 2862.94 4468.13C2862.94 4475.94 2860.93 4483.1 2856.9 4489.61C2853 4496 2847.85 4501.15 2841.46 4505.06C2835.06 4508.85 2828.02 4510.74 2820.33 4510.74ZM2820.33 4332.3C2808.61 4332.3 2798.55 4328.15 2790.14 4319.87C2781.86 4311.58 2777.71 4301.52 2777.71 4289.68C2777.71 4278.08 2781.86 4268.2 2790.14 4260.03C2798.55 4251.75 2808.61 4247.6 2820.33 4247.6C2831.69 4247.6 2841.63 4251.75 2850.16 4260.03C2858.68 4268.2 2862.94 4278.08 2862.94 4289.68C2862.94 4297.61 2860.93 4304.83 2856.9 4311.35C2853 4317.74 2847.85 4322.83 2841.46 4326.62C2835.06 4330.4 2828.02 4332.3 2820.33 4332.3ZM3082.53 4189.36V4553H3005.65V4262.34H3003.52L2920.25 4314.54V4246.36L3010.27 4189.36H3082.53ZM3163.45 4489.08V4428.53L3315.27 4189.36H3367.47V4273.17H3336.57L3240.87 4424.63V4427.47H3456.6V4489.08H3163.45ZM3337.99 4553V4470.61L3339.41 4443.8V4189.36H3411.5V4553H3337.99ZM3583.91 4503.28L3581.96 4522.82C3580.42 4538.44 3577.46 4554.01 3573.08 4569.51C3568.82 4585.14 3564.32 4599.28 3559.58 4611.95C3554.97 4624.61 3551.24 4634.56 3548.4 4641.78H3499.39C3501.17 4634.79 3503.59 4625.03 3506.67 4612.48C3509.75 4600.05 3512.65 4586.08 3515.37 4570.58C3518.09 4555.07 3519.81 4539.27 3520.52 4523.17L3521.41 4503.28H3583.91ZM520.521 4908V4869.65C520.521 4858.76 522.652 4847.63 526.913 4836.27C531.175 4824.9 536.797 4814.19 543.781 4804.13C550.765 4794.07 558.341 4785.66 566.509 4778.92L599.889 4798.62C593.26 4809.04 587.815 4819.93 583.554 4831.3C579.411 4842.66 577.339 4855.32 577.339 4869.29V4908H520.521ZM610.188 4908V4869.65C610.188 4858.76 612.318 4847.63 616.58 4836.27C620.841 4824.9 626.464 4814.19 633.447 4804.13C640.431 4794.07 648.007 4785.66 656.175 4778.92L689.555 4798.62C682.927 4809.04 677.482 4819.93 673.22 4831.3C669.077 4842.66 667.006 4855.32 667.006 4869.29V4908H610.188ZM1039.7 4794.36V5158H973.291L815.088 4929.13H812.425V5158H735.543V4794.36H803.014L959.974 5023.06H963.17V4794.36H1039.7ZM1165.19 4794.36V4832.72C1165.19 4843.61 1163.06 4854.73 1158.79 4866.1C1154.65 4877.34 1149.09 4888 1142.1 4898.06C1135.12 4908 1127.48 4916.46 1119.2 4923.45L1085.82 4903.74C1091.74 4894.39 1096.94 4884.03 1101.44 4872.67C1106.06 4861.3 1108.37 4848.1 1108.37 4833.07V4794.36H1165.19ZM1254.5 4794.36V4832.72C1254.5 4843.61 1252.37 4854.73 1248.1 4866.1C1243.96 4877.34 1238.4 4888 1231.41 4898.06C1224.43 4908 1216.74 4916.46 1208.33 4923.45L1174.95 4903.74C1180.99 4894.39 1186.26 4884.03 1190.75 4872.67C1195.37 4861.3 1197.68 4848.1 1197.68 4833.07V4794.36H1254.5ZM1328.14 5115.74C1316.42 5115.74 1306.36 5111.6 1297.95 5103.31C1289.67 5095.03 1285.52 5084.96 1285.52 5073.13C1285.52 5061.53 1289.67 5051.58 1297.95 5043.3C1306.36 5035.01 1316.42 5030.87 1328.14 5030.87C1339.5 5030.87 1349.45 5035.01 1357.97 5043.3C1366.49 5051.58 1370.75 5061.53 1370.75 5073.13C1370.75 5080.94 1368.74 5088.1 1364.72 5094.61C1360.81 5101 1355.66 5106.15 1349.27 5110.06C1342.88 5113.85 1335.83 5115.74 1328.14 5115.74ZM1328.14 4937.3C1316.42 4937.3 1306.36 4933.15 1297.95 4924.87C1289.67 4916.58 1285.52 4906.52 1285.52 4894.68C1285.52 4883.08 1289.67 4873.2 1297.95 4865.03C1306.36 4856.75 1316.42 4852.6 1328.14 4852.6C1339.5 4852.6 1349.45 4856.75 1357.97 4865.03C1366.49 4873.2 1370.75 4883.08 1370.75 4894.68C1370.75 4902.61 1368.74 4909.83 1364.72 4916.35C1360.81 4922.74 1355.66 4927.83 1349.27 4931.62C1342.88 4935.4 1335.83 4937.3 1328.14 4937.3ZM1432.14 5158V5102.6L1561.58 4982.75C1572.59 4972.1 1581.82 4962.51 1589.28 4953.99C1596.86 4945.46 1602.6 4937.12 1606.5 4928.95C1610.41 4920.67 1612.36 4911.73 1612.36 4902.14C1612.36 4891.49 1609.94 4882.31 1605.08 4874.62C1600.23 4866.81 1593.6 4860.83 1585.2 4856.69C1576.79 4852.42 1567.26 4850.29 1556.61 4850.29C1545.48 4850.29 1535.78 4852.54 1527.49 4857.04C1519.2 4861.54 1512.81 4867.99 1508.31 4876.39C1503.82 4884.8 1501.57 4894.8 1501.57 4906.4H1428.59C1428.59 4882.61 1433.98 4861.95 1444.75 4844.43C1455.52 4826.92 1470.61 4813.36 1490.03 4803.77C1509.44 4794.19 1531.81 4789.39 1557.14 4789.39C1583.18 4789.39 1605.85 4794.01 1625.15 4803.24C1644.56 4812.36 1659.65 4825.02 1670.42 4841.24C1681.2 4857.46 1686.58 4876.04 1686.58 4896.99C1686.58 4910.72 1683.86 4924.28 1678.41 4937.65C1673.09 4951.03 1663.56 4965.88 1649.83 4982.22C1636.1 4998.44 1616.74 5017.91 1591.77 5040.63L1538.68 5092.66V5095.14H1691.38V5158H1432.14ZM1830 5108.28L1828.05 5127.82C1826.51 5143.44 1823.55 5159.01 1819.17 5174.51C1814.91 5190.14 1810.41 5204.28 1805.68 5216.95C1801.06 5229.61 1797.33 5239.56 1794.49 5246.78H1745.49C1747.26 5239.79 1749.69 5230.03 1752.77 5217.48C1755.84 5205.05 1758.74 5191.08 1761.47 5175.58C1764.19 5160.07 1765.9 5144.27 1766.62 5128.17L1767.5 5108.28H1830ZM1995.13 4908V4869.65C1995.13 4858.76 1997.26 4847.63 2001.52 4836.27C2005.78 4824.9 2011.41 4814.19 2018.39 4804.13C2025.37 4794.07 2032.95 4785.66 2041.12 4778.92L2074.5 4798.62C2067.87 4809.04 2062.42 4819.93 2058.16 4831.3C2054.02 4842.66 2051.95 4855.32 2051.95 4869.29V4908H1995.13ZM2084.8 4908V4869.65C2084.8 4858.76 2086.93 4847.63 2091.19 4836.27C2095.45 4824.9 2101.07 4814.19 2108.06 4804.13C2115.04 4794.07 2122.62 4785.66 2130.78 4778.92L2164.16 4798.62C2157.54 4809.04 2152.09 4819.93 2147.83 4831.3C2143.69 4842.66 2141.62 4855.32 2141.62 4869.29V4908H2084.8ZM2407.42 4898.94C2406 4884.62 2399.9 4873.49 2389.13 4865.56C2378.36 4857.63 2363.74 4853.67 2345.27 4853.67C2332.73 4853.67 2322.13 4855.44 2313.49 4858.99C2304.85 4862.43 2298.22 4867.22 2293.6 4873.38C2289.11 4879.53 2286.86 4886.52 2286.86 4894.33C2286.62 4900.84 2287.98 4906.52 2290.94 4911.37C2294.02 4916.23 2298.22 4920.43 2303.55 4923.98C2308.87 4927.41 2315.03 4930.43 2322.01 4933.04C2329 4935.52 2336.45 4937.65 2344.38 4939.43L2377.06 4947.24C2392.92 4950.79 2407.48 4955.53 2420.73 4961.44C2433.99 4967.36 2445.47 4974.64 2455.18 4983.28C2464.89 4991.93 2472.4 5002.11 2477.73 5013.82C2483.18 5025.54 2485.96 5038.98 2486.08 5054.13C2485.96 5076.38 2480.28 5095.68 2469.03 5112.01C2457.9 5128.23 2441.8 5140.84 2420.73 5149.83C2399.78 5158.71 2374.51 5163.15 2344.92 5163.15C2315.56 5163.15 2289.99 5158.65 2268.21 5149.65C2246.55 5140.66 2229.62 5127.34 2217.43 5109.7C2205.36 5091.95 2199.03 5069.99 2198.43 5043.83H2272.83C2273.66 5056.02 2277.15 5066.2 2283.31 5074.37C2289.58 5082.42 2297.92 5088.52 2308.34 5092.66C2318.88 5096.68 2330.77 5098.7 2344.03 5098.7C2357.05 5098.7 2368.36 5096.8 2377.94 5093.01C2387.65 5089.23 2395.17 5083.96 2400.49 5077.21C2405.82 5070.46 2408.48 5062.71 2408.48 5053.95C2408.48 5045.78 2406.06 5038.92 2401.2 5033.36C2396.47 5027.79 2389.48 5023.06 2380.25 5019.15C2371.14 5015.24 2359.95 5011.69 2346.69 5008.5L2307.1 4998.55C2276.44 4991.1 2252.23 4979.44 2234.48 4963.58C2216.72 4947.71 2207.9 4926.35 2208.02 4899.48C2207.9 4877.46 2213.76 4858.22 2225.6 4841.77C2237.55 4825.32 2253.95 4812.47 2274.78 4803.24C2295.62 4794.01 2319.29 4789.39 2345.81 4789.39C2372.79 4789.39 2396.35 4794.01 2416.47 4803.24C2436.71 4812.47 2452.46 4825.32 2463.7 4841.77C2474.95 4858.22 2480.75 4877.28 2481.1 4898.94H2407.42ZM2599.76 4794.36V4832.72C2599.76 4843.61 2597.63 4854.73 2593.36 4866.1C2589.22 4877.34 2583.66 4888 2576.67 4898.06C2569.69 4908 2562.05 4916.46 2553.77 4923.45L2520.39 4903.74C2526.31 4894.39 2531.52 4884.03 2536.01 4872.67C2540.63 4861.3 2542.94 4848.1 2542.94 4833.07V4794.36H2599.76ZM2689.07 4794.36V4832.72C2689.07 4843.61 2686.94 4854.73 2682.68 4866.1C2678.53 4877.34 2672.97 4888 2665.98 4898.06C2659 4908 2651.31 4916.46 2642.9 4923.45L2609.52 4903.74C2615.56 4894.39 2620.83 4884.03 2625.32 4872.67C2629.94 4861.3 2632.25 4848.1 2632.25 4833.07V4794.36H2689.07ZM2762.71 5115.74C2750.99 5115.74 2740.93 5111.6 2732.52 5103.31C2724.24 5095.03 2720.1 5084.96 2720.1 5073.13C2720.1 5061.53 2724.24 5051.58 2732.52 5043.3C2740.93 5035.01 2750.99 5030.87 2762.71 5030.87C2774.07 5030.87 2784.02 5035.01 2792.54 5043.3C2801.06 5051.58 2805.32 5061.53 2805.32 5073.13C2805.32 5080.94 2803.31 5088.1 2799.29 5094.61C2795.38 5101 2790.23 5106.15 2783.84 5110.06C2777.45 5113.85 2770.4 5115.74 2762.71 5115.74ZM2762.71 4937.3C2750.99 4937.3 2740.93 4933.15 2732.52 4924.87C2724.24 4916.58 2720.1 4906.52 2720.1 4894.68C2720.1 4883.08 2724.24 4873.2 2732.52 4865.03C2740.93 4856.75 2750.99 4852.6 2762.71 4852.6C2774.07 4852.6 2784.02 4856.75 2792.54 4865.03C2801.06 4873.2 2805.32 4883.08 2805.32 4894.68C2805.32 4902.61 2803.31 4909.83 2799.29 4916.35C2795.38 4922.74 2790.23 4927.83 2783.84 4931.62C2777.45 4935.4 2770.4 4937.3 2762.71 4937.3ZM2861.21 5094.08V5033.53L3013.02 4794.36H3065.22V4878.17H3034.33L2938.62 5029.63V5032.47H3154.35V5094.08H2861.21ZM3035.75 5158V5075.61L3037.17 5048.8V4794.36H3109.26V5158H3035.75Z" fill="#737370"/>
<line x1="1551.94" y1="230.562" x2="4246.06" y2="230.562" stroke="#82D1F5" stroke-width="25"/>
<line x1="2948" y1="1779.5" x2="4246" y2="1779.5" stroke="#82D1F5" stroke-width="25"/>
<line x1="4231.5" y1="243" x2="4231.5" y2="598" stroke="#82D1F5" stroke-width="25"/>
<line x1="355" y1="913.5" y2="913.5" stroke="#737370" stroke-width="25"/>
<line x1="12.6191" y1="901" x2="12.6191" y2="2285" stroke="#737370" stroke-width="25"/>
<line x1="4231.5" y1="1792" x2="4231.5" y2="2147" stroke="#82D1F5" stroke-width="25"/>
<path d="M1555.16 606.839C1560.04 611.72 1567.96 611.72 1572.84 606.839L1652.39 527.289C1657.27 522.408 1657.27 514.493 1652.39 509.612C1647.51 504.73 1639.59 504.73 1634.71 509.612L1564 580.322L1493.29 509.612C1488.41 504.73 1480.49 504.73 1475.61 509.612C1470.73 514.493 1470.73 522.408 1475.61 527.289L1555.16 606.839ZM1551.5 243V598H1576.5V243H1551.5Z" fill="#82D1F5"/>
<path d="M3748.16 606.839C3753.04 611.72 3760.96 611.72 3765.84 606.839L3845.39 527.289C3850.27 522.408 3850.27 514.493 3845.39 509.612C3840.51 504.73 3832.59 504.73 3827.71 509.612L3757 580.322L3686.29 509.612C3681.41 504.73 3673.49 504.73 3668.61 509.612C3663.73 514.493 3663.73 522.408 3668.61 527.289L3748.16 606.839ZM3744.5 243V598H3769.5V243H3744.5Z" fill="#82D1F5"/>
<path d="M3638.16 2155.84C3643.04 2160.72 3650.96 2160.72 3655.84 2155.84L3735.39 2076.29C3740.27 2071.41 3740.27 2063.49 3735.39 2058.61C3730.51 2053.73 3722.59 2053.73 3717.71 2058.61L3647 2129.32L3576.29 2058.61C3571.41 2053.73 3563.49 2053.73 3558.61 2058.61C3553.73 2063.49 3553.73 2071.41 3558.61 2076.29L3638.16 2155.84ZM3634.5 1792V2147H3659.5V1792H3634.5Z" fill="#82D1F5"/>
<path d="M364.077 2293.84C368.959 2288.96 368.959 2281.04 364.077 2276.16L284.528 2196.61C279.646 2191.73 271.731 2191.73 266.85 2196.61C261.968 2201.49 261.968 2209.41 266.85 2214.29L337.561 2285L266.85 2355.71C261.968 2360.59 261.968 2368.51 266.85 2373.39C271.731 2378.27 279.646 2378.27 284.528 2373.39L364.077 2293.84ZM355.238 2272.5H0.000335693V2297.5H355.238V2272.5Z" fill="#737370"/>
<line x1="355" y1="2476.5" y2="2476.5" stroke="#737370" stroke-width="25"/>
<line x1="12.6191" y1="2464" x2="12.6191" y2="3299" stroke="#737370" stroke-width="25"/>
<path d="M364.077 3307.84C368.959 3302.96 368.959 3295.04 364.077 3290.16L284.528 3210.61C279.646 3205.73 271.731 3205.73 266.85 3210.61C261.968 3215.49 261.968 3223.41 266.85 3228.29L337.561 3299L266.85 3369.71C261.968 3374.59 261.968 3382.51 266.85 3387.39C271.731 3392.27 279.646 3392.27 284.528 3387.39L364.077 3307.84ZM355.238 3286.5H0.000335693V3311.5H355.238V3286.5Z" fill="#737370"/>
<line x1="355" y1="3652.5" y2="3652.5" stroke="#737370" stroke-width="25"/>
<line x1="12.6191" y1="3640" x2="12.6191" y2="4475" stroke="#737370" stroke-width="25"/>
<path d="M364.077 4483.84C368.959 4478.96 368.959 4471.04 364.077 4466.16L284.528 4386.61C279.646 4381.73 271.731 4381.73 266.85 4386.61C261.968 4391.49 261.968 4399.41 266.85 4404.29L337.561 4475L266.85 4545.71C261.968 4550.59 261.968 4558.51 266.85 4563.39C271.731 4568.27 279.646 4568.27 284.528 4563.39L364.077 4483.84ZM355.238 4462.5H0.000335693V4487.5H355.238V4462.5Z" fill="#737370"/>
<line x1="355" y1="4873.5" y2="4873.5" stroke="#737370" stroke-width="25"/>
<line x1="12.6191" y1="4861" x2="12.6191" y2="5696" stroke="#737370" stroke-width="25"/>
<path d="M364.077 5704.84C368.959 5699.96 368.959 5692.04 364.077 5687.16L284.528 5607.61C279.646 5602.73 271.731 5602.73 266.85 5607.61C261.968 5612.49 261.968 5620.41 266.85 5625.29L337.561 5696L266.85 5766.71C261.968 5771.59 261.968 5779.51 266.85 5784.39C271.731 5789.27 279.646 5789.27 284.528 5784.39L364.077 5704.84ZM355.238 5683.5H0.000335693V5708.5H355.238V5683.5Z" fill="#737370"/>
<path d="M2939.16 2155.84C2944.04 2160.72 2951.96 2160.72 2956.84 2155.84L3036.39 2076.29C3041.27 2071.41 3041.27 2063.49 3036.39 2058.61C3031.51 2053.73 3023.59 2053.73 3018.71 2058.61L2948 2129.32L2877.29 2058.61C2872.41 2053.73 2864.49 2053.73 2859.61 2058.61C2854.73 2063.49 2854.73 2071.41 2859.61 2076.29L2939.16 2155.84ZM2935.5 1792V2147H2960.5V1792H2935.5Z" fill="#82D1F5"/>
<path d="M1963.16 606.839C1968.04 611.72 1975.96 611.72 1980.84 606.839L2060.39 527.289C2065.27 522.408 2065.27 514.493 2060.39 509.612C2055.51 504.73 2047.59 504.73 2042.71 509.612L1972 580.322L1901.29 509.612C1896.41 504.73 1888.49 504.73 1883.61 509.612C1878.73 514.493 1878.73 522.408 1883.61 527.289L1963.16 606.839ZM1959.5 243V598H1984.5V243H1959.5Z" fill="#82D1F5"/>
<line x1="1411" y1="1190.5" x2="1726" y2="1190.5" stroke="#737370" stroke-width="25"/>
<line x1="1738.5" y1="1082" x2="1738.5" y2="1203" stroke="#737370" stroke-width="25"/>
<line x1="1398.5" y1="1203" x2="1398.5" y2="1082" stroke="#737370" stroke-width="25"/>
<line x1="3175" y1="2739.5" x2="3806" y2="2739.5" stroke="#737370" stroke-width="25"/>
<line x1="3818.5" y1="2631" x2="3818.5" y2="2752" stroke="#737370" stroke-width="25"/>
<line x1="3162.5" y1="2752" x2="3162.5" y2="2631" stroke="#737370" stroke-width="25"/>
<line x1="1904" y1="3804.5" x2="2535" y2="3804.5" stroke="#737370" stroke-width="25"/>
<line x1="2547.5" y1="3696" x2="2547.5" y2="3817" stroke="#737370" stroke-width="25"/>
<line x1="1891.5" y1="3817" x2="1891.5" y2="3696" stroke="#737370" stroke-width="25"/>
<line x1="3315" y1="3804.5" x2="4183" y2="3804.5" stroke="#737370" stroke-width="25"/>
<line x1="4195.5" y1="3696" x2="4195.5" y2="3817" stroke="#737370" stroke-width="25"/>
<line x1="3302.5" y1="3817" x2="3302.5" y2="3696" stroke="#737370" stroke-width="25"/>
<line x1="2609" y1="3804.5" x2="3240" y2="3804.5" stroke="#737370" stroke-width="25"/>
<line x1="3252.5" y1="3696" x2="3252.5" y2="3817" stroke="#737370" stroke-width="25"/>
<line x1="2596.5" y1="3817" x2="2596.5" y2="3696" stroke="#737370" stroke-width="25"/>
<line x1="1199" y1="3804.5" x2="1830" y2="3804.5" stroke="#737370" stroke-width="25"/>
<line x1="1842.5" y1="3696" x2="1842.5" y2="3817" stroke="#737370" stroke-width="25"/>
<line x1="1186.5" y1="3817" x2="1186.5" y2="3696" stroke="#737370" stroke-width="25"/>
<line x1="493" y1="3804.5" x2="1124" y2="3804.5" stroke="#737370" stroke-width="25"/>
<line x1="1136.5" y1="3696" x2="1136.5" y2="3817" stroke="#737370" stroke-width="25"/>
<line x1="480.5" y1="3817" x2="480.5" y2="3696" stroke="#737370" stroke-width="25"/>
<line x1="2791" y1="2739.5" x2="3106" y2="2739.5" stroke="#737370" stroke-width="25"/>
<line x1="3118.5" y1="2631" x2="3118.5" y2="2752" stroke="#737370" stroke-width="25"/>
<line x1="2778.5" y1="2752" x2="2778.5" y2="2631" stroke="#737370" stroke-width="25"/>
<line x1="2219" y1="1190.5" x2="3900" y2="1190.5" stroke="#737370" stroke-width="25"/>
<line x1="3912.5" y1="1082" x2="3912.5" y2="1203" stroke="#737370" stroke-width="25"/>
<line x1="2206.5" y1="1203" x2="2206.5" y2="1082" stroke="#737370" stroke-width="25"/>
<line x1="1815" y1="1190.5" x2="2130" y2="1190.5" stroke="#737370" stroke-width="25"/>
<line x1="2142.5" y1="1082" x2="2142.5" y2="1203" stroke="#737370" stroke-width="25"/>
<line x1="1802.5" y1="1203" x2="1802.5" y2="1082" stroke="#737370" stroke-width="25"/>
<path d="M1784.25 194L1802.43 84.9091H1818.62L1815.78 101.955H1817.2C1820.47 96.1307 1824.9 91.6089 1830.49 88.3892C1836.12 85.1222 1842.49 83.4886 1849.59 83.4886C1856.69 83.4886 1862.4 85.1222 1866.71 88.3892C1871.02 91.6089 1874.02 96.1307 1875.73 101.955H1876.86C1880.56 96.2727 1885.48 91.7746 1891.64 88.4602C1897.84 85.1458 1904.85 83.4886 1912.66 83.4886C1922.32 83.4886 1929.75 86.5426 1934.96 92.6506C1940.22 98.7585 1941.78 108.205 1939.65 120.989L1927.43 194H1910.67L1922.89 120.989C1924.16 112.892 1922.89 107.139 1919.05 103.73C1915.26 100.274 1910.39 98.5455 1904.42 98.5455C1896.75 98.5455 1890.43 100.842 1885.46 105.435C1880.49 110.027 1877.43 115.875 1876.3 122.977L1864.36 194H1847.32L1859.82 119.284C1860.81 113.034 1859.63 108.015 1856.27 104.227C1852.91 100.439 1848.03 98.5455 1841.64 98.5455C1837.28 98.5455 1833.02 99.7292 1828.85 102.097C1824.69 104.417 1821.11 107.636 1818.13 111.756C1815.14 115.828 1813.23 120.515 1812.38 125.818L1801.01 194H1784.25ZM2034.21 149.398L2045.01 84.9091H2061.77L2043.59 194H2026.83L2029.95 175.534H2028.82C2025.41 181.074 2020.65 185.785 2014.54 189.668C2008.43 193.503 2001.26 195.42 1993.02 195.42C1986.2 195.42 1980.38 193.929 1975.55 190.946C1970.77 187.916 1967.36 183.37 1965.32 177.31C1963.33 171.202 1963.1 163.508 1964.61 154.227L1976.26 84.9091H1993.02L1981.66 153.091C1980.38 161.045 1981.59 167.39 1985.28 172.125C1988.97 176.86 1994.3 179.227 2001.26 179.227C2005.43 179.227 2009.83 178.162 2014.47 176.031C2019.16 173.901 2023.32 170.634 2026.97 166.23C2030.66 161.827 2033.08 156.216 2034.21 149.398ZM2115.2 48.5455L2091.05 194H2074.29L2098.44 48.5455H2115.2ZM2187.38 84.9091L2185.1 99.1136H2128.57L2130.84 84.9091H2187.38ZM2151.58 58.7727H2168.34L2151.01 162.75C2150.25 167.485 2150.37 171.036 2151.37 173.403C2152.41 175.723 2153.97 177.286 2156.05 178.091C2158.18 178.848 2160.48 179.227 2162.94 179.227C2164.79 179.227 2166.3 179.133 2167.49 178.943C2168.67 178.706 2169.62 178.517 2170.33 178.375L2171.47 193.432C2170.19 193.858 2168.46 194.284 2166.28 194.71C2164.15 195.184 2161.52 195.42 2158.4 195.42C2153.66 195.42 2149.21 194.402 2145.05 192.366C2140.88 190.33 2137.68 187.229 2135.46 183.062C2133.23 178.896 2132.64 173.64 2133.68 167.295L2151.58 58.7727ZM2194.41 194L2212.59 84.9091H2229.35L2211.17 194H2194.41ZM2226.08 66.4432C2222.82 66.4432 2220 65.3305 2217.63 63.1051C2215.31 60.8797 2214.15 58.2045 2214.15 55.0795C2214.15 51.9545 2215.31 49.2794 2217.63 47.054C2220 44.8286 2222.82 43.7159 2226.08 43.7159C2229.35 43.7159 2232.14 44.8286 2234.46 47.054C2236.83 49.2794 2238.01 51.9545 2238.01 55.0795C2238.01 58.2045 2236.83 60.8797 2234.46 63.1051C2232.14 65.3305 2229.35 66.4432 2226.08 66.4432ZM2235.05 234.909L2260.19 84.9091H2276.38L2273.54 102.239H2275.53C2277.05 100.345 2279.13 97.9299 2281.78 94.9943C2284.48 92.0114 2288.1 89.3598 2292.65 87.0398C2297.24 84.6723 2303.09 83.4886 2310.19 83.4886C2319.38 83.4886 2327.07 85.785 2333.27 90.3778C2339.48 94.9706 2343.86 101.481 2346.41 109.909C2348.97 118.337 2349.3 128.28 2347.41 139.739C2345.51 151.292 2341.89 161.306 2336.54 169.781C2331.19 178.209 2324.66 184.743 2316.94 189.384C2309.22 193.976 2300.82 196.273 2291.73 196.273C2284.72 196.273 2279.3 195.113 2275.46 192.793C2271.63 190.425 2268.83 187.75 2267.08 184.767C2265.33 181.737 2263.98 179.227 2263.03 177.239H2261.61L2251.95 234.909H2235.05ZM2267.58 139.455C2266.25 147.693 2266.25 154.961 2267.58 161.259C2268.95 167.509 2271.67 172.409 2275.75 175.96C2279.86 179.464 2285.29 181.216 2292.01 181.216C2299.02 181.216 2305.15 179.369 2310.4 175.676C2315.71 171.936 2320.06 166.917 2323.47 160.619C2326.93 154.275 2329.32 147.22 2330.65 139.455C2331.88 131.784 2331.83 124.871 2330.5 118.716C2329.18 112.513 2326.48 107.613 2322.41 104.014C2318.33 100.368 2312.75 98.5455 2305.65 98.5455C2298.83 98.5455 2292.79 100.274 2287.53 103.73C2282.33 107.139 2278.02 111.921 2274.61 118.077C2271.25 124.185 2268.9 131.311 2267.58 139.455ZM2404.85 48.5455L2380.7 194H2363.94L2388.09 48.5455H2404.85ZM2415.52 234.909C2412.68 234.909 2410.17 234.672 2407.99 234.199C2405.86 233.773 2404.39 233.347 2403.59 232.92L2410.4 218.148C2414.29 219.189 2417.74 219.497 2420.77 219.071C2423.85 218.692 2426.76 217.201 2429.51 214.597C2432.3 212.04 2435.21 208.015 2438.25 202.523L2442.93 194L2421.06 84.9091H2438.53L2454.15 172.125H2455.29L2499.89 84.9091H2518.78L2451.88 209.767C2448.76 215.591 2445.32 220.349 2441.58 224.043C2437.84 227.736 2433.79 230.458 2429.44 232.21C2425.08 234.009 2420.44 234.909 2415.52 234.909ZM2619.89 195.989C2610.32 195.989 2602.37 194.237 2596.02 190.733C2589.68 187.229 2585.16 182.423 2582.46 176.315C2579.76 170.207 2579.07 163.223 2580.4 155.364C2581.34 149.303 2583.5 143.929 2586.86 139.241C2590.22 134.507 2594.53 130.127 2599.79 126.102C2605.04 122.03 2610.98 117.958 2617.61 113.886L2641.19 98.2614C2645.74 95.5625 2649.5 92.6742 2652.49 89.5966C2655.47 86.5189 2657.39 82.4943 2658.24 77.5227C2658.81 73.8295 2657.74 70.2547 2655.04 66.7983C2652.39 63.3419 2648.44 61.6136 2643.18 61.6136C2639.49 61.6136 2636.08 62.5606 2632.95 64.4545C2629.83 66.3011 2627.22 68.6686 2625.14 71.5568C2623.11 74.3977 2621.83 77.3333 2621.31 80.3636C2620.74 83.7727 2621.12 87.2055 2622.44 90.6619C2623.77 94.1184 2625.61 97.6695 2627.98 101.315C2630.35 104.914 2632.76 108.631 2635.23 112.466L2688.35 194H2668.18L2624.15 127.523C2620.08 121.367 2616.38 115.78 2613.07 110.761C2609.8 105.742 2607.34 100.795 2605.68 95.9176C2604.02 91.0407 2603.65 85.7614 2604.54 80.0795C2605.59 73.5454 2607.95 67.8163 2611.65 62.892C2615.39 57.9204 2620.12 54.0615 2625.85 51.3153C2631.63 48.5218 2638.07 47.125 2645.17 47.125C2652.46 47.125 2658.5 48.5455 2663.28 51.3864C2668.11 54.1799 2671.54 57.8968 2673.58 62.5369C2675.66 67.1297 2676.23 72.125 2675.28 77.5227C2674.15 84.483 2671.4 90.5199 2667.04 95.6335C2662.69 100.7 2657.2 105.458 2650.57 109.909L2618.18 131.5C2610.84 136.377 2605.61 141.088 2602.49 145.634C2599.41 150.132 2597.73 153.375 2597.44 155.364C2596.68 159.909 2597.16 164.147 2598.86 168.077C2600.61 172.007 2603.43 175.179 2607.31 177.594C2611.24 180.009 2616.1 181.216 2621.87 181.216C2627.37 181.216 2632.91 180.056 2638.49 177.736C2644.08 175.368 2649.34 171.959 2654.26 167.509C2659.23 163.058 2663.47 157.707 2666.97 151.457C2670.48 145.207 2672.87 138.176 2674.15 130.364H2690.34C2688.73 140.023 2686.36 147.883 2683.24 153.943C2680.16 159.956 2676.99 164.691 2673.72 168.148C2670.5 171.557 2667.9 174.208 2665.91 176.102C2665.2 176.812 2664.44 177.523 2663.64 178.233C2662.83 178.943 2662.07 179.653 2661.36 180.364C2655.82 185.619 2649.27 189.549 2641.69 192.153C2634.11 194.71 2626.85 195.989 2619.89 195.989ZM2808.18 196.273C2798.15 196.273 2789.74 193.882 2782.97 189.099C2776.2 184.317 2771.42 177.617 2768.62 169C2765.88 160.383 2765.43 150.345 2767.28 138.886C2769.07 127.712 2772.65 117.982 2778 109.696C2783.4 101.363 2790.1 94.9233 2798.1 90.3778C2806.15 85.785 2815 83.4886 2824.66 83.4886C2834.7 83.4886 2843.08 85.9034 2849.8 90.733C2856.57 95.5152 2861.36 102.239 2864.15 110.903C2866.94 119.521 2867.42 129.606 2865.57 141.159C2863.77 152.239 2860.15 161.921 2854.7 170.207C2849.31 178.446 2842.61 184.862 2834.61 189.455C2826.65 194 2817.84 196.273 2808.18 196.273ZM2808.47 181.216C2816.14 181.216 2822.79 179.251 2828.43 175.321C2834.11 171.391 2838.7 166.206 2842.2 159.767C2845.76 153.328 2848.15 146.367 2849.38 138.886C2850.51 131.784 2850.47 125.179 2849.24 119.071C2848 112.916 2845.38 107.968 2841.35 104.227C2837.33 100.439 2831.67 98.5455 2824.38 98.5455C2816.71 98.5455 2810.01 100.534 2804.28 104.511C2798.6 108.489 2794 113.721 2790.5 120.207C2787 126.694 2784.65 133.678 2783.47 141.159C2782.33 148.261 2782.36 154.866 2783.54 160.974C2784.77 167.035 2787.4 171.936 2791.42 175.676C2795.5 179.369 2801.18 181.216 2808.47 181.216ZM2875.67 234.909L2900.82 84.9091H2917.01L2914.17 102.239H2916.16C2917.67 100.345 2919.76 97.9299 2922.41 94.9943C2925.11 92.0114 2928.73 89.3598 2933.27 87.0398C2937.87 84.6723 2943.71 83.4886 2950.82 83.4886C2960 83.4886 2967.7 85.785 2973.9 90.3778C2980.1 94.9706 2984.48 101.481 2987.04 109.909C2989.59 118.337 2989.93 128.28 2988.03 139.739C2986.14 151.292 2982.52 161.306 2977.17 169.781C2971.82 178.209 2965.28 184.743 2957.56 189.384C2949.85 193.976 2941.44 196.273 2932.35 196.273C2925.34 196.273 2919.92 195.113 2916.09 192.793C2912.25 190.425 2909.46 187.75 2907.71 184.767C2905.95 181.737 2904.6 179.227 2903.66 177.239H2902.24L2892.58 234.909H2875.67ZM2908.2 139.455C2906.88 147.693 2906.88 154.961 2908.2 161.259C2909.58 167.509 2912.3 172.409 2916.37 175.96C2920.49 179.464 2925.91 181.216 2932.63 181.216C2939.64 181.216 2945.77 179.369 2951.03 175.676C2956.33 171.936 2960.69 166.917 2964.1 160.619C2967.55 154.275 2969.94 147.22 2971.27 139.455C2972.5 131.784 2972.45 124.871 2971.13 118.716C2969.8 112.513 2967.1 107.613 2963.03 104.014C2958.96 100.368 2953.37 98.5455 2946.27 98.5455C2939.45 98.5455 2933.42 100.274 2928.16 103.73C2922.95 107.139 2918.64 111.921 2915.23 118.077C2911.87 124.185 2909.53 131.311 2908.2 139.455ZM3050.02 196.273C3039.55 196.273 3030.91 193.953 3024.09 189.312C3017.28 184.625 3012.52 178.091 3009.82 169.71C3007.12 161.282 3006.69 151.481 3008.54 140.307C3010.39 129.133 3014.06 119.284 3019.55 110.761C3025.04 102.191 3031.88 95.5152 3040.07 90.733C3048.27 85.9034 3057.26 83.4886 3067.06 83.4886C3072.74 83.4886 3078.21 84.4356 3083.47 86.3295C3088.72 88.2235 3093.27 91.3011 3097.11 95.5625C3100.94 99.7765 3103.62 105.364 3105.13 112.324C3106.65 119.284 3106.55 127.854 3104.85 138.034L3103.71 145.136H3019.62L3021.89 130.648H3088.94C3090.03 124.492 3089.74 119 3088.09 114.17C3086.48 109.341 3083.66 105.529 3079.63 102.736C3075.66 99.9422 3070.61 98.5455 3064.51 98.5455C3058.21 98.5455 3052.34 100.25 3046.89 103.659C3041.45 107.021 3036.9 111.282 3033.26 116.443C3029.61 121.557 3027.34 126.765 3026.44 132.068L3024.45 144.568C3023.03 153.612 3023.24 160.809 3025.09 166.159C3026.98 171.509 3030.27 175.368 3034.96 177.736C3039.65 180.056 3045.52 181.216 3052.57 181.216C3057.07 181.216 3061.21 180.6 3065 179.369C3068.79 178.091 3072.18 176.197 3075.16 173.688C3078.14 171.131 3080.65 167.958 3082.69 164.17L3098.03 168.716C3095.42 174.208 3091.75 179.038 3087.02 183.205C3082.33 187.324 3076.84 190.544 3070.54 192.864C3064.29 195.136 3057.45 196.273 3050.02 196.273ZM3148.92 128.375L3138.12 194H3121.36L3139.54 84.9091H3155.73L3152.89 101.955H3154.31C3157.72 96.4148 3162.34 91.964 3168.16 88.6023C3173.99 85.1932 3181.02 83.4886 3189.26 83.4886C3196.55 83.4886 3202.7 85.0038 3207.72 88.0341C3212.79 91.017 3216.36 95.5625 3218.45 101.67C3220.58 107.731 3220.89 115.402 3219.37 124.682L3207.72 194H3190.96L3202.33 125.818C3203.75 117.295 3202.63 110.619 3198.99 105.79C3195.39 100.96 3189.68 98.5455 3181.87 98.5455C3176.47 98.5455 3171.48 99.7055 3166.88 102.026C3162.34 104.346 3158.48 107.731 3155.31 112.182C3152.18 116.633 3150.05 122.03 3148.92 128.375ZM3296.87 194L3321.02 48.5455H3337.78L3328.98 102.239H3330.4C3331.91 100.345 3334.02 97.9299 3336.72 94.9943C3339.42 92.0114 3343.04 89.3598 3347.58 87.0398C3352.13 84.6723 3357.95 83.4886 3365.06 83.4886C3374.24 83.4886 3381.94 85.785 3388.14 90.3778C3394.39 94.9706 3398.77 101.481 3401.28 109.909C3403.83 118.337 3404.17 128.28 3402.27 139.739C3400.38 151.292 3396.76 161.306 3391.41 169.781C3386.1 178.209 3379.57 184.743 3371.8 189.384C3364.09 193.976 3355.68 196.273 3346.59 196.273C3339.58 196.273 3334.16 195.113 3330.33 192.793C3326.54 190.425 3323.74 187.75 3321.95 184.767C3320.19 181.737 3318.84 179.227 3317.9 177.239H3315.91L3313.07 194H3296.87ZM3322.44 139.455C3321.12 147.693 3321.14 154.961 3322.51 161.259C3323.89 167.509 3326.61 172.409 3330.68 175.96C3334.75 179.464 3340.15 181.216 3346.87 181.216C3353.88 181.216 3360.04 179.369 3365.34 175.676C3370.64 171.936 3375 166.917 3378.41 160.619C3381.82 154.275 3384.18 147.22 3385.51 139.455C3386.74 131.784 3386.69 124.871 3385.37 118.716C3384.09 112.513 3381.39 107.613 3377.27 104.014C3373.2 100.368 3367.61 98.5455 3360.51 98.5455C3353.69 98.5455 3347.66 100.274 3342.4 103.73C3337.19 107.139 3332.88 111.921 3329.47 118.077C3326.11 124.185 3323.77 131.311 3322.44 139.455ZM3418.82 194L3437 84.9091H3453.2L3450.35 101.386H3451.49C3454.33 95.9886 3458.66 91.6089 3464.49 88.2472C3470.31 84.8854 3476.49 83.2045 3483.02 83.2045C3484.3 83.2045 3485.84 83.2282 3487.64 83.2756C3489.44 83.2756 3490.84 83.3466 3491.83 83.4886L3488.99 100.534C3488.42 100.392 3487.14 100.179 3485.16 99.8949C3483.17 99.5634 3481.04 99.3977 3478.76 99.3977C3473.46 99.3977 3468.56 100.51 3464.06 102.736C3459.56 104.914 3455.8 107.944 3452.77 111.827C3449.74 115.662 3447.8 120.042 3446.95 124.966L3435.58 194H3418.82ZM3525.44 196.557C3518.53 196.557 3512.47 195.255 3507.26 192.651C3502.05 189.999 3498.19 186.188 3495.68 181.216C3493.18 176.197 3492.49 170.136 3493.62 163.034C3494.71 156.784 3496.82 151.718 3499.95 147.835C3503.07 143.905 3506.86 140.828 3511.31 138.602C3515.81 136.33 3520.64 134.649 3525.8 133.56C3531.01 132.423 3536.19 131.547 3541.35 130.932C3548.08 130.08 3553.54 129.417 3557.76 128.943C3561.97 128.47 3565.14 127.688 3567.28 126.599C3569.41 125.51 3570.71 123.64 3571.18 120.989V120.42C3572.32 113.46 3571.39 108.039 3568.41 104.156C3565.43 100.226 3560.1 98.2614 3552.43 98.2614C3544.48 98.2614 3537.82 100.013 3532.47 103.517C3527.12 107.021 3523.17 110.761 3520.61 114.739L3505.84 109.057C3509.72 102.428 3514.36 97.267 3519.76 93.5739C3525.16 89.8333 3530.82 87.2292 3536.74 85.7614C3542.65 84.2462 3548.36 83.4886 3553.85 83.4886C3557.36 83.4886 3561.31 83.9148 3565.71 84.767C3570.12 85.572 3574.24 87.2528 3578.07 89.8097C3581.95 92.3665 3584.87 96.2254 3586.81 101.386C3588.8 106.547 3589.08 113.46 3587.66 122.125L3575.73 194H3558.97L3561.52 179.227H3560.67C3559.16 181.595 3556.84 184.128 3553.71 186.827C3550.63 189.526 3546.73 191.822 3541.99 193.716C3537.3 195.61 3531.79 196.557 3525.44 196.557ZM3530.27 181.5C3536.9 181.5 3542.7 180.198 3547.67 177.594C3552.69 174.99 3556.72 171.628 3559.75 167.509C3562.82 163.389 3564.74 159.057 3565.5 154.511L3568.06 139.17C3567.2 140.023 3565.52 140.804 3563.01 141.514C3560.5 142.177 3557.66 142.769 3554.49 143.29C3551.37 143.763 3548.31 144.189 3545.33 144.568C3542.39 144.9 3540.03 145.184 3538.23 145.42C3533.78 145.989 3529.54 146.912 3525.51 148.19C3521.54 149.421 3518.18 151.292 3515.43 153.801C3512.73 156.263 3511.05 159.625 3510.39 163.886C3509.39 169.71 3510.79 174.114 3514.58 177.097C3518.36 180.032 3523.6 181.5 3530.27 181.5ZM3650.35 196.273C3640.08 196.273 3631.65 193.858 3625.07 189.028C3618.54 184.199 3613.99 177.546 3611.43 169.071C3608.88 160.596 3608.5 150.913 3610.3 140.023C3612.1 128.943 3615.74 119.166 3621.24 110.69C3626.73 102.168 3633.57 95.5152 3641.76 90.733C3649.95 85.9034 3658.97 83.4886 3668.82 83.4886C3676.49 83.4886 3683.17 84.9091 3688.85 87.75C3694.53 90.5909 3698.91 94.5682 3701.99 99.6818C3705.07 104.795 3706.51 110.761 3706.32 117.58H3689.56C3689.09 112.608 3686.95 108.205 3683.17 104.369C3679.43 100.487 3673.89 98.5455 3666.55 98.5455C3660.01 98.5455 3654 100.25 3648.51 103.659C3643.02 107.021 3638.4 111.779 3634.66 117.935C3630.92 124.043 3628.38 131.216 3627.06 139.455C3625.64 147.883 3625.76 155.222 3627.41 161.472C3629.07 167.722 3632.08 172.575 3636.43 176.031C3640.79 179.488 3646.28 181.216 3652.91 181.216C3657.27 181.216 3661.34 180.458 3665.13 178.943C3668.92 177.428 3672.28 175.25 3675.21 172.409C3678.15 169.568 3680.47 166.159 3682.17 162.182H3698.93C3696.85 168.621 3693.51 174.421 3688.92 179.582C3684.33 184.696 3678.76 188.768 3672.23 191.798C3665.7 194.781 3658.4 196.273 3650.35 196.273ZM3740.2 154.227L3743.32 133.489H3746.73L3802.7 84.9091H3823.44L3764.06 136.33H3762.64L3740.2 154.227ZM3718.04 194L3742.19 48.5455H3758.95L3734.8 194H3718.04ZM3787.36 194L3753.83 140.023L3767.47 128.375L3808.66 194H3787.36ZM3867.79 196.273C3857.33 196.273 3848.69 193.953 3841.87 189.312C3835.05 184.625 3830.29 178.091 3827.59 169.71C3824.89 161.282 3824.47 151.481 3826.31 140.307C3828.16 129.133 3831.83 119.284 3837.32 110.761C3842.81 102.191 3849.66 95.5152 3857.85 90.733C3866.04 85.9034 3875.03 83.4886 3884.84 83.4886C3890.52 83.4886 3895.99 84.4356 3901.24 86.3295C3906.5 88.2235 3911.04 91.3011 3914.88 95.5625C3918.71 99.7765 3921.39 105.364 3922.9 112.324C3924.42 119.284 3924.32 127.854 3922.62 138.034L3921.48 145.136H3837.39L3839.67 130.648H3906.71C3907.8 124.492 3907.52 119 3905.86 114.17C3904.25 109.341 3901.43 105.529 3897.41 102.736C3893.43 99.9422 3888.39 98.5455 3882.28 98.5455C3875.98 98.5455 3870.11 100.25 3864.67 103.659C3859.22 107.021 3854.67 111.282 3851.03 116.443C3847.38 121.557 3845.11 126.765 3844.21 132.068L3842.22 144.568C3840.8 153.612 3841.01 160.809 3842.86 166.159C3844.76 171.509 3848.05 175.368 3852.73 177.736C3857.42 180.056 3863.29 181.216 3870.35 181.216C3874.85 181.216 3878.99 180.6 3882.78 179.369C3886.56 178.091 3889.95 176.197 3892.93 173.688C3895.92 171.131 3898.42 167.958 3900.46 164.17L3915.8 168.716C3913.2 174.208 3909.53 179.038 3904.79 183.205C3900.11 187.324 3894.61 190.544 3888.32 192.864C3882.07 195.136 3875.22 196.273 3867.79 196.273ZM4004.76 84.9091L4002.49 99.1136H3945.95L3948.22 84.9091H4004.76ZM3968.96 58.7727H3985.72L3968.39 162.75C3967.64 167.485 3967.75 171.036 3968.75 173.403C3969.79 175.723 3971.35 177.286 3973.44 178.091C3975.57 178.848 3977.86 179.227 3980.33 179.227C3982.17 179.227 3983.69 179.133 3984.87 178.943C3986.06 178.706 3987 178.517 3987.71 178.375L3988.85 193.432C3987.57 193.858 3985.84 194.284 3983.66 194.71C3981.53 195.184 3978.91 195.42 3975.78 195.42C3971.05 195.42 3966.59 194.402 3962.43 192.366C3958.26 190.33 3955.07 187.229 3952.84 183.062C3950.61 178.896 3950.02 173.64 3951.06 167.295L3968.96 58.7727ZM4101.31 109.341L4085.4 113.602C4084.84 111.045 4083.84 108.583 4082.42 106.216C4081.05 103.801 4078.92 101.836 4076.03 100.321C4073.19 98.7585 4069.31 97.9773 4064.38 97.9773C4057.71 97.9773 4051.91 99.5161 4046.98 102.594C4042.06 105.624 4039.24 109.483 4038.53 114.17C4037.82 118.29 4038.77 121.58 4041.37 124.043C4043.97 126.505 4048.33 128.517 4054.44 130.08L4070.06 134.057C4079.44 136.472 4086.11 140.094 4090.09 144.923C4094.12 149.705 4095.49 155.932 4094.21 163.602C4093.17 169.852 4090.45 175.439 4086.04 180.364C4081.64 185.288 4076.01 189.17 4069.14 192.011C4062.27 194.852 4054.63 196.273 4046.2 196.273C4034.98 196.273 4026.12 193.858 4019.64 189.028C4013.15 184.152 4009.69 177.097 4009.27 167.864L4026.03 163.886C4026.46 169.71 4028.54 174.114 4032.28 177.097C4036.07 180.032 4041.37 181.5 4048.19 181.5C4056 181.5 4062.51 179.843 4067.72 176.528C4072.93 173.167 4075.89 169.142 4076.6 164.455C4077.31 160.619 4076.55 157.423 4074.32 154.866C4072.15 152.31 4068.36 150.392 4062.96 149.114L4045.63 144.852C4035.97 142.437 4029.2 138.744 4025.32 133.773C4021.48 128.801 4020.21 122.551 4021.48 115.023C4022.53 108.867 4025.18 103.422 4029.44 98.6875C4033.75 93.9527 4039.14 90.2358 4045.63 87.5369C4052.17 84.8381 4059.27 83.4886 4066.94 83.4886C4077.73 83.4886 4085.81 85.8561 4091.16 90.5909C4096.51 95.2784 4099.89 101.528 4101.31 109.341Z" fill="#737370"/>
<path d="M2038.25 1694L2056.43 1584.91H2072.62L2069.78 1601.95H2071.2C2074.47 1596.13 2078.9 1591.61 2084.49 1588.39C2090.12 1585.12 2096.49 1583.49 2103.59 1583.49C2110.69 1583.49 2116.4 1585.12 2120.71 1588.39C2125.02 1591.61 2128.02 1596.13 2129.73 1601.95H2130.86C2134.56 1596.27 2139.48 1591.77 2145.64 1588.46C2151.84 1585.15 2158.85 1583.49 2166.66 1583.49C2176.32 1583.49 2183.75 1586.54 2188.96 1592.65C2194.22 1598.76 2195.78 1608.2 2193.65 1620.99L2181.43 1694H2164.67L2176.89 1620.99C2178.16 1612.89 2176.89 1607.14 2173.05 1603.73C2169.26 1600.27 2164.39 1598.55 2158.42 1598.55C2150.75 1598.55 2144.43 1600.84 2139.46 1605.43C2134.49 1610.03 2131.43 1615.87 2130.3 1622.98L2118.36 1694H2101.32L2113.82 1619.28C2114.81 1613.03 2113.63 1608.02 2110.27 1604.23C2106.91 1600.44 2102.03 1598.55 2095.64 1598.55C2091.28 1598.55 2087.02 1599.73 2082.85 1602.1C2078.69 1604.42 2075.11 1607.64 2072.13 1611.76C2069.14 1615.83 2067.23 1620.52 2066.38 1625.82L2055.01 1694H2038.25ZM2288.21 1649.4L2299.01 1584.91H2315.77L2297.59 1694H2280.83L2283.95 1675.53H2282.82C2279.41 1681.07 2274.65 1685.79 2268.54 1689.67C2262.43 1693.5 2255.26 1695.42 2247.02 1695.42C2240.2 1695.42 2234.38 1693.93 2229.55 1690.95C2224.77 1687.92 2221.36 1683.37 2219.32 1677.31C2217.33 1671.2 2217.1 1663.51 2218.61 1654.23L2230.26 1584.91H2247.02L2235.66 1653.09C2234.38 1661.05 2235.59 1667.39 2239.28 1672.12C2242.97 1676.86 2248.3 1679.23 2255.26 1679.23C2259.43 1679.23 2263.83 1678.16 2268.47 1676.03C2273.16 1673.9 2277.32 1670.63 2280.97 1666.23C2284.66 1661.83 2287.08 1656.22 2288.21 1649.4ZM2369.2 1548.55L2345.05 1694H2328.29L2352.44 1548.55H2369.2ZM2441.38 1584.91L2439.1 1599.11H2382.57L2384.84 1584.91H2441.38ZM2405.58 1558.77H2422.34L2405.01 1662.75C2404.25 1667.48 2404.37 1671.04 2405.37 1673.4C2406.41 1675.72 2407.97 1677.29 2410.05 1678.09C2412.18 1678.85 2414.48 1679.23 2416.94 1679.23C2418.79 1679.23 2420.3 1679.13 2421.49 1678.94C2422.67 1678.71 2423.62 1678.52 2424.33 1678.38L2425.47 1693.43C2424.19 1693.86 2422.46 1694.28 2420.28 1694.71C2418.15 1695.18 2415.52 1695.42 2412.4 1695.42C2407.66 1695.42 2403.21 1694.4 2399.05 1692.37C2394.88 1690.33 2391.68 1687.23 2389.46 1683.06C2387.23 1678.9 2386.64 1673.64 2387.68 1667.3L2405.58 1558.77ZM2448.41 1694L2466.59 1584.91H2483.35L2465.17 1694H2448.41ZM2480.08 1566.44C2476.82 1566.44 2474 1565.33 2471.63 1563.11C2469.31 1560.88 2468.15 1558.2 2468.15 1555.08C2468.15 1551.95 2469.31 1549.28 2471.63 1547.05C2474 1544.83 2476.82 1543.72 2480.08 1543.72C2483.35 1543.72 2486.14 1544.83 2488.46 1547.05C2490.83 1549.28 2492.01 1551.95 2492.01 1555.08C2492.01 1558.2 2490.83 1560.88 2488.46 1563.11C2486.14 1565.33 2483.35 1566.44 2480.08 1566.44ZM2489.05 1734.91L2514.19 1584.91H2530.38L2527.54 1602.24H2529.53C2531.05 1600.34 2533.13 1597.93 2535.78 1594.99C2538.48 1592.01 2542.1 1589.36 2546.65 1587.04C2551.24 1584.67 2557.09 1583.49 2564.19 1583.49C2573.38 1583.49 2581.07 1585.79 2587.27 1590.38C2593.48 1594.97 2597.86 1601.48 2600.41 1609.91C2602.97 1618.34 2603.3 1628.28 2601.41 1639.74C2599.51 1651.29 2595.89 1661.31 2590.54 1669.78C2585.19 1678.21 2578.66 1684.74 2570.94 1689.38C2563.22 1693.98 2554.82 1696.27 2545.73 1696.27C2538.72 1696.27 2533.3 1695.11 2529.46 1692.79C2525.63 1690.43 2522.83 1687.75 2521.08 1684.77C2519.33 1681.74 2517.98 1679.23 2517.03 1677.24H2515.61L2505.95 1734.91H2489.05ZM2521.58 1639.45C2520.25 1647.69 2520.25 1654.96 2521.58 1661.26C2522.95 1667.51 2525.67 1672.41 2529.75 1675.96C2533.86 1679.46 2539.29 1681.22 2546.01 1681.22C2553.02 1681.22 2559.15 1679.37 2564.4 1675.68C2569.71 1671.94 2574.06 1666.92 2577.47 1660.62C2580.93 1654.27 2583.32 1647.22 2584.65 1639.45C2585.88 1631.78 2585.83 1624.87 2584.5 1618.72C2583.18 1612.51 2580.48 1607.61 2576.41 1604.01C2572.33 1600.37 2566.75 1598.55 2559.65 1598.55C2552.83 1598.55 2546.79 1600.27 2541.53 1603.73C2536.33 1607.14 2532.02 1611.92 2528.61 1618.08C2525.25 1624.18 2522.9 1631.31 2521.58 1639.45ZM2658.85 1548.55L2634.7 1694H2617.94L2642.09 1548.55H2658.85ZM2669.52 1734.91C2666.68 1734.91 2664.17 1734.67 2661.99 1734.2C2659.86 1733.77 2658.39 1733.35 2657.59 1732.92L2664.4 1718.15C2668.29 1719.19 2671.74 1719.5 2674.77 1719.07C2677.85 1718.69 2680.76 1717.2 2683.51 1714.6C2686.3 1712.04 2689.21 1708.02 2692.25 1702.52L2696.93 1694L2675.06 1584.91H2692.53L2708.15 1672.12H2709.29L2753.89 1584.91H2772.78L2705.88 1709.77C2702.76 1715.59 2699.32 1720.35 2695.58 1724.04C2691.84 1727.74 2687.79 1730.46 2683.44 1732.21C2679.08 1734.01 2674.44 1734.91 2669.52 1734.91ZM2873.89 1695.99C2864.32 1695.99 2856.37 1694.24 2850.02 1690.73C2843.68 1687.23 2839.16 1682.42 2836.46 1676.32C2833.76 1670.21 2833.07 1663.22 2834.4 1655.36C2835.34 1649.3 2837.5 1643.93 2840.86 1639.24C2844.22 1634.51 2848.53 1630.13 2853.79 1626.1C2859.04 1622.03 2864.98 1617.96 2871.61 1613.89L2895.19 1598.26C2899.74 1595.56 2903.5 1592.67 2906.49 1589.6C2909.47 1586.52 2911.39 1582.49 2912.24 1577.52C2912.81 1573.83 2911.74 1570.25 2909.04 1566.8C2906.39 1563.34 2902.44 1561.61 2897.18 1561.61C2893.49 1561.61 2890.08 1562.56 2886.95 1564.45C2883.83 1566.3 2881.22 1568.67 2879.14 1571.56C2877.11 1574.4 2875.83 1577.33 2875.31 1580.36C2874.74 1583.77 2875.12 1587.21 2876.44 1590.66C2877.77 1594.12 2879.61 1597.67 2881.98 1601.32C2884.35 1604.91 2886.76 1608.63 2889.23 1612.47L2942.35 1694H2922.18L2878.15 1627.52C2874.08 1621.37 2870.38 1615.78 2867.07 1610.76C2863.8 1605.74 2861.34 1600.79 2859.68 1595.92C2858.02 1591.04 2857.65 1585.76 2858.54 1580.08C2859.59 1573.55 2861.95 1567.82 2865.65 1562.89C2869.39 1557.92 2874.12 1554.06 2879.85 1551.32C2885.63 1548.52 2892.07 1547.12 2899.17 1547.12C2906.46 1547.12 2912.5 1548.55 2917.28 1551.39C2922.11 1554.18 2925.54 1557.9 2927.58 1562.54C2929.66 1567.13 2930.23 1572.12 2929.28 1577.52C2928.15 1584.48 2925.4 1590.52 2921.04 1595.63C2916.69 1600.7 2911.2 1605.46 2904.57 1609.91L2872.18 1631.5C2864.84 1636.38 2859.61 1641.09 2856.49 1645.63C2853.41 1650.13 2851.73 1653.37 2851.44 1655.36C2850.68 1659.91 2851.16 1664.15 2852.86 1668.08C2854.61 1672.01 2857.43 1675.18 2861.31 1677.59C2865.24 1680.01 2870.1 1681.22 2875.87 1681.22C2881.37 1681.22 2886.91 1680.06 2892.49 1677.74C2898.08 1675.37 2903.34 1671.96 2908.26 1667.51C2913.23 1663.06 2917.47 1657.71 2920.97 1651.46C2924.48 1645.21 2926.87 1638.18 2928.15 1630.36H2944.34C2942.73 1640.02 2940.36 1647.88 2937.24 1653.94C2934.16 1659.96 2930.99 1664.69 2927.72 1668.15C2924.5 1671.56 2921.9 1674.21 2919.91 1676.1C2919.2 1676.81 2918.44 1677.52 2917.64 1678.23C2916.83 1678.94 2916.07 1679.65 2915.36 1680.36C2909.82 1685.62 2903.27 1689.55 2895.69 1692.15C2888.11 1694.71 2880.85 1695.99 2873.89 1695.99ZM3062.18 1696.27C3052.15 1696.27 3043.74 1693.88 3036.97 1689.1C3030.2 1684.32 3025.42 1677.62 3022.62 1669C3019.88 1660.38 3019.43 1650.34 3021.28 1638.89C3023.07 1627.71 3026.65 1617.98 3032 1609.7C3037.4 1601.36 3044.1 1594.92 3052.1 1590.38C3060.15 1585.79 3069 1583.49 3078.66 1583.49C3088.7 1583.49 3097.08 1585.9 3103.8 1590.73C3110.57 1595.52 3115.36 1602.24 3118.15 1610.9C3120.94 1619.52 3121.42 1629.61 3119.57 1641.16C3117.77 1652.24 3114.15 1661.92 3108.7 1670.21C3103.31 1678.45 3096.61 1684.86 3088.61 1689.45C3080.65 1694 3071.84 1696.27 3062.18 1696.27ZM3062.47 1681.22C3070.14 1681.22 3076.79 1679.25 3082.43 1675.32C3088.11 1671.39 3092.7 1666.21 3096.2 1659.77C3099.76 1653.33 3102.15 1646.37 3103.38 1638.89C3104.51 1631.78 3104.47 1625.18 3103.24 1619.07C3102 1612.92 3099.38 1607.97 3095.35 1604.23C3091.33 1600.44 3085.67 1598.55 3078.38 1598.55C3070.71 1598.55 3064.01 1600.53 3058.28 1604.51C3052.6 1608.49 3048 1613.72 3044.5 1620.21C3041 1626.69 3038.65 1633.68 3037.47 1641.16C3036.33 1648.26 3036.36 1654.87 3037.54 1660.97C3038.77 1667.04 3041.4 1671.94 3045.42 1675.68C3049.5 1679.37 3055.18 1681.22 3062.47 1681.22ZM3129.67 1734.91L3154.82 1584.91H3171.01L3168.17 1602.24H3170.16C3171.67 1600.34 3173.76 1597.93 3176.41 1594.99C3179.11 1592.01 3182.73 1589.36 3187.27 1587.04C3191.87 1584.67 3197.71 1583.49 3204.82 1583.49C3214 1583.49 3221.7 1585.79 3227.9 1590.38C3234.1 1594.97 3238.48 1601.48 3241.04 1609.91C3243.59 1618.34 3243.93 1628.28 3242.03 1639.74C3240.14 1651.29 3236.52 1661.31 3231.17 1669.78C3225.82 1678.21 3219.28 1684.74 3211.56 1689.38C3203.85 1693.98 3195.44 1696.27 3186.35 1696.27C3179.34 1696.27 3173.92 1695.11 3170.09 1692.79C3166.25 1690.43 3163.46 1687.75 3161.71 1684.77C3159.95 1681.74 3158.6 1679.23 3157.66 1677.24H3156.24L3146.58 1734.91H3129.67ZM3162.2 1639.45C3160.88 1647.69 3160.88 1654.96 3162.2 1661.26C3163.58 1667.51 3166.3 1672.41 3170.37 1675.96C3174.49 1679.46 3179.91 1681.22 3186.63 1681.22C3193.64 1681.22 3199.77 1679.37 3205.03 1675.68C3210.33 1671.94 3214.69 1666.92 3218.1 1660.62C3221.55 1654.27 3223.94 1647.22 3225.27 1639.45C3226.5 1631.78 3226.45 1624.87 3225.13 1618.72C3223.8 1612.51 3221.1 1607.61 3217.03 1604.01C3212.96 1600.37 3207.37 1598.55 3200.27 1598.55C3193.45 1598.55 3187.42 1600.27 3182.16 1603.73C3176.95 1607.14 3172.64 1611.92 3169.23 1618.08C3165.87 1624.18 3163.53 1631.31 3162.2 1639.45ZM3304.02 1696.27C3293.55 1696.27 3284.91 1693.95 3278.09 1689.31C3271.28 1684.62 3266.52 1678.09 3263.82 1669.71C3261.12 1661.28 3260.69 1651.48 3262.54 1640.31C3264.39 1629.13 3268.06 1619.28 3273.55 1610.76C3279.04 1602.19 3285.88 1595.52 3294.07 1590.73C3302.27 1585.9 3311.26 1583.49 3321.06 1583.49C3326.74 1583.49 3332.21 1584.44 3337.47 1586.33C3342.72 1588.22 3347.27 1591.3 3351.11 1595.56C3354.94 1599.78 3357.62 1605.36 3359.13 1612.32C3360.65 1619.28 3360.55 1627.85 3358.85 1638.03L3357.71 1645.14H3273.62L3275.89 1630.65H3342.94C3344.03 1624.49 3343.74 1619 3342.09 1614.17C3340.48 1609.34 3337.66 1605.53 3333.63 1602.74C3329.66 1599.94 3324.61 1598.55 3318.51 1598.55C3312.21 1598.55 3306.34 1600.25 3300.89 1603.66C3295.45 1607.02 3290.9 1611.28 3287.26 1616.44C3283.61 1621.56 3281.34 1626.77 3280.44 1632.07L3278.45 1644.57C3277.03 1653.61 3277.24 1660.81 3279.09 1666.16C3280.98 1671.51 3284.27 1675.37 3288.96 1677.74C3293.65 1680.06 3299.52 1681.22 3306.57 1681.22C3311.07 1681.22 3315.21 1680.6 3319 1679.37C3322.79 1678.09 3326.18 1676.2 3329.16 1673.69C3332.14 1671.13 3334.65 1667.96 3336.69 1664.17L3352.03 1668.72C3349.42 1674.21 3345.75 1679.04 3341.02 1683.2C3336.33 1687.32 3330.84 1690.54 3324.54 1692.86C3318.29 1695.14 3311.45 1696.27 3304.02 1696.27ZM3402.92 1628.38L3392.12 1694H3375.36L3393.54 1584.91H3409.73L3406.89 1601.95H3408.31C3411.72 1596.41 3416.34 1591.96 3422.16 1588.6C3427.99 1585.19 3435.02 1583.49 3443.26 1583.49C3450.55 1583.49 3456.7 1585 3461.72 1588.03C3466.79 1591.02 3470.36 1595.56 3472.45 1601.67C3474.58 1607.73 3474.89 1615.4 3473.37 1624.68L3461.72 1694H3444.96L3456.33 1625.82C3457.75 1617.3 3456.63 1610.62 3452.99 1605.79C3449.39 1600.96 3443.68 1598.55 3435.87 1598.55C3430.47 1598.55 3425.48 1599.71 3420.88 1602.03C3416.34 1604.35 3412.48 1607.73 3409.31 1612.18C3406.18 1616.63 3404.05 1622.03 3402.92 1628.38ZM3550.87 1694L3575.02 1548.55H3591.78L3582.98 1602.24H3584.4C3585.91 1600.34 3588.02 1597.93 3590.72 1594.99C3593.42 1592.01 3597.04 1589.36 3601.58 1587.04C3606.13 1584.67 3611.95 1583.49 3619.06 1583.49C3628.24 1583.49 3635.94 1585.79 3642.14 1590.38C3648.39 1594.97 3652.77 1601.48 3655.28 1609.91C3657.83 1618.34 3658.17 1628.28 3656.27 1639.74C3654.38 1651.29 3650.76 1661.31 3645.41 1669.78C3640.1 1678.21 3633.57 1684.74 3625.8 1689.38C3618.09 1693.98 3609.68 1696.27 3600.59 1696.27C3593.58 1696.27 3588.16 1695.11 3584.33 1692.79C3580.54 1690.43 3577.74 1687.75 3575.95 1684.77C3574.19 1681.74 3572.84 1679.23 3571.9 1677.24H3569.91L3567.07 1694H3550.87ZM3576.44 1639.45C3575.12 1647.69 3575.14 1654.96 3576.51 1661.26C3577.89 1667.51 3580.61 1672.41 3584.68 1675.96C3588.75 1679.46 3594.15 1681.22 3600.87 1681.22C3607.88 1681.22 3614.04 1679.37 3619.34 1675.68C3624.64 1671.94 3629 1666.92 3632.41 1660.62C3635.82 1654.27 3638.18 1647.22 3639.51 1639.45C3640.74 1631.78 3640.69 1624.87 3639.37 1618.72C3638.09 1612.51 3635.39 1607.61 3631.27 1604.01C3627.2 1600.37 3621.61 1598.55 3614.51 1598.55C3607.69 1598.55 3601.66 1600.27 3596.4 1603.73C3591.19 1607.14 3586.88 1611.92 3583.47 1618.08C3580.11 1624.18 3577.77 1631.31 3576.44 1639.45ZM3672.82 1694L3691 1584.91H3707.2L3704.35 1601.39H3705.49C3708.33 1595.99 3712.66 1591.61 3718.49 1588.25C3724.31 1584.89 3730.49 1583.2 3737.02 1583.2C3738.3 1583.2 3739.84 1583.23 3741.64 1583.28C3743.44 1583.28 3744.84 1583.35 3745.83 1583.49L3742.99 1600.53C3742.42 1600.39 3741.14 1600.18 3739.16 1599.89C3737.17 1599.56 3735.04 1599.4 3732.76 1599.4C3727.46 1599.4 3722.56 1600.51 3718.06 1602.74C3713.56 1604.91 3709.8 1607.94 3706.77 1611.83C3703.74 1615.66 3701.8 1620.04 3700.95 1624.97L3689.58 1694H3672.82ZM3779.44 1696.56C3772.53 1696.56 3766.47 1695.25 3761.26 1692.65C3756.05 1690 3752.19 1686.19 3749.68 1681.22C3747.18 1676.2 3746.49 1670.14 3747.62 1663.03C3748.71 1656.78 3750.82 1651.72 3753.95 1647.84C3757.07 1643.91 3760.86 1640.83 3765.31 1638.6C3769.81 1636.33 3774.64 1634.65 3779.8 1633.56C3785.01 1632.42 3790.19 1631.55 3795.35 1630.93C3802.08 1630.08 3807.54 1629.42 3811.76 1628.94C3815.97 1628.47 3819.14 1627.69 3821.28 1626.6C3823.41 1625.51 3824.71 1623.64 3825.18 1620.99V1620.42C3826.32 1613.46 3825.39 1608.04 3822.41 1604.16C3819.43 1600.23 3814.1 1598.26 3806.43 1598.26C3798.48 1598.26 3791.82 1600.01 3786.47 1603.52C3781.12 1607.02 3777.17 1610.76 3774.61 1614.74L3759.84 1609.06C3763.72 1602.43 3768.36 1597.27 3773.76 1593.57C3779.16 1589.83 3784.82 1587.23 3790.74 1585.76C3796.65 1584.25 3802.36 1583.49 3807.85 1583.49C3811.36 1583.49 3815.31 1583.91 3819.71 1584.77C3824.12 1585.57 3828.24 1587.25 3832.07 1589.81C3835.95 1592.37 3838.87 1596.23 3840.81 1601.39C3842.8 1606.55 3843.08 1613.46 3841.66 1622.12L3829.73 1694H3812.97L3815.52 1679.23H3814.67C3813.16 1681.59 3810.84 1684.13 3807.71 1686.83C3804.63 1689.53 3800.73 1691.82 3795.99 1693.72C3791.3 1695.61 3785.79 1696.56 3779.44 1696.56ZM3784.27 1681.5C3790.9 1681.5 3796.7 1680.2 3801.67 1677.59C3806.69 1674.99 3810.72 1671.63 3813.75 1667.51C3816.82 1663.39 3818.74 1659.06 3819.5 1654.51L3822.06 1639.17C3821.2 1640.02 3819.52 1640.8 3817.01 1641.51C3814.5 1642.18 3811.66 1642.77 3808.49 1643.29C3805.37 1643.76 3802.31 1644.19 3799.33 1644.57C3796.39 1644.9 3794.03 1645.18 3792.23 1645.42C3787.78 1645.99 3783.54 1646.91 3779.51 1648.19C3775.54 1649.42 3772.18 1651.29 3769.43 1653.8C3766.73 1656.26 3765.05 1659.62 3764.39 1663.89C3763.39 1669.71 3764.79 1674.11 3768.58 1677.1C3772.36 1680.03 3777.6 1681.5 3784.27 1681.5ZM3904.35 1696.27C3894.08 1696.27 3885.65 1693.86 3879.07 1689.03C3872.54 1684.2 3867.99 1677.55 3865.43 1669.07C3862.88 1660.6 3862.5 1650.91 3864.3 1640.02C3866.1 1628.94 3869.74 1619.17 3875.24 1610.69C3880.73 1602.17 3887.57 1595.52 3895.76 1590.73C3903.95 1585.9 3912.97 1583.49 3922.82 1583.49C3930.49 1583.49 3937.17 1584.91 3942.85 1587.75C3948.53 1590.59 3952.91 1594.57 3955.99 1599.68C3959.07 1604.8 3960.51 1610.76 3960.32 1617.58H3943.56C3943.09 1612.61 3940.95 1608.2 3937.17 1604.37C3933.43 1600.49 3927.89 1598.55 3920.55 1598.55C3914.01 1598.55 3908 1600.25 3902.51 1603.66C3897.02 1607.02 3892.4 1611.78 3888.66 1617.93C3884.92 1624.04 3882.38 1631.22 3881.06 1639.45C3879.64 1647.88 3879.76 1655.22 3881.41 1661.47C3883.07 1667.72 3886.08 1672.57 3890.43 1676.03C3894.79 1679.49 3900.28 1681.22 3906.91 1681.22C3911.27 1681.22 3915.34 1680.46 3919.13 1678.94C3922.92 1677.43 3926.28 1675.25 3929.21 1672.41C3932.15 1669.57 3934.47 1666.16 3936.17 1662.18H3952.93C3950.85 1668.62 3947.51 1674.42 3942.92 1679.58C3938.33 1684.7 3932.76 1688.77 3926.23 1691.8C3919.7 1694.78 3912.4 1696.27 3904.35 1696.27ZM3994.2 1654.23L3997.32 1633.49H4000.73L4056.7 1584.91H4077.44L4018.06 1636.33H4016.64L3994.2 1654.23ZM3972.04 1694L3996.19 1548.55H4012.95L3988.8 1694H3972.04ZM4041.36 1694L4007.83 1640.02L4021.47 1628.38L4062.66 1694H4041.36ZM4121.79 1696.27C4111.33 1696.27 4102.69 1693.95 4095.87 1689.31C4089.05 1684.62 4084.29 1678.09 4081.59 1669.71C4078.89 1661.28 4078.47 1651.48 4080.31 1640.31C4082.16 1629.13 4085.83 1619.28 4091.32 1610.76C4096.81 1602.19 4103.66 1595.52 4111.85 1590.73C4120.04 1585.9 4129.03 1583.49 4138.84 1583.49C4144.52 1583.49 4149.99 1584.44 4155.24 1586.33C4160.5 1588.22 4165.04 1591.3 4168.88 1595.56C4172.71 1599.78 4175.39 1605.36 4176.9 1612.32C4178.42 1619.28 4178.32 1627.85 4176.62 1638.03L4175.48 1645.14H4091.39L4093.67 1630.65H4160.71C4161.8 1624.49 4161.52 1619 4159.86 1614.17C4158.25 1609.34 4155.43 1605.53 4151.41 1602.74C4147.43 1599.94 4142.39 1598.55 4136.28 1598.55C4129.98 1598.55 4124.11 1600.25 4118.67 1603.66C4113.22 1607.02 4108.67 1611.28 4105.03 1616.44C4101.38 1621.56 4099.11 1626.77 4098.21 1632.07L4096.22 1644.57C4094.8 1653.61 4095.01 1660.81 4096.86 1666.16C4098.76 1671.51 4102.05 1675.37 4106.73 1677.74C4111.42 1680.06 4117.29 1681.22 4124.35 1681.22C4128.85 1681.22 4132.99 1680.6 4136.78 1679.37C4140.56 1678.09 4143.95 1676.2 4146.93 1673.69C4149.92 1671.13 4152.42 1667.96 4154.46 1664.17L4169.8 1668.72C4167.2 1674.21 4163.53 1679.04 4158.79 1683.2C4154.11 1687.32 4148.61 1690.54 4142.32 1692.86C4136.07 1695.14 4129.22 1696.27 4121.79 1696.27ZM4258.76 1584.91L4256.49 1599.11H4199.95L4202.22 1584.91H4258.76ZM4222.96 1558.77H4239.72L4222.39 1662.75C4221.64 1667.48 4221.75 1671.04 4222.75 1673.4C4223.79 1675.72 4225.35 1677.29 4227.44 1678.09C4229.57 1678.85 4231.86 1679.23 4234.33 1679.23C4236.17 1679.23 4237.69 1679.13 4238.87 1678.94C4240.06 1678.71 4241 1678.52 4241.71 1678.38L4242.85 1693.43C4241.57 1693.86 4239.84 1694.28 4237.66 1694.71C4235.53 1695.18 4232.91 1695.42 4229.78 1695.42C4225.05 1695.42 4220.59 1694.4 4216.43 1692.37C4212.26 1690.33 4209.07 1687.23 4206.84 1683.06C4204.61 1678.9 4204.02 1673.64 4205.06 1667.3L4222.96 1558.77ZM4355.31 1609.34L4339.4 1613.6C4338.84 1611.05 4337.84 1608.58 4336.42 1606.22C4335.05 1603.8 4332.92 1601.84 4330.03 1600.32C4327.19 1598.76 4323.31 1597.98 4318.38 1597.98C4311.71 1597.98 4305.91 1599.52 4300.98 1602.59C4296.06 1605.62 4293.24 1609.48 4292.53 1614.17C4291.82 1618.29 4292.77 1621.58 4295.37 1624.04C4297.97 1626.5 4302.33 1628.52 4308.44 1630.08L4324.06 1634.06C4333.44 1636.47 4340.11 1640.09 4344.09 1644.92C4348.12 1649.71 4349.49 1655.93 4348.21 1663.6C4347.17 1669.85 4344.45 1675.44 4340.04 1680.36C4335.64 1685.29 4330.01 1689.17 4323.14 1692.01C4316.27 1694.85 4308.63 1696.27 4300.2 1696.27C4288.98 1696.27 4280.12 1693.86 4273.64 1689.03C4267.15 1684.15 4263.69 1677.1 4263.27 1667.86L4280.03 1663.89C4280.46 1669.71 4282.54 1674.11 4286.28 1677.1C4290.07 1680.03 4295.37 1681.5 4302.19 1681.5C4310 1681.5 4316.51 1679.84 4321.72 1676.53C4326.93 1673.17 4329.89 1669.14 4330.6 1664.45C4331.31 1660.62 4330.55 1657.42 4328.32 1654.87C4326.15 1652.31 4322.36 1650.39 4316.96 1649.11L4299.63 1644.85C4289.97 1642.44 4283.2 1638.74 4279.32 1633.77C4275.48 1628.8 4274.21 1622.55 4275.48 1615.02C4276.53 1608.87 4279.18 1603.42 4283.44 1598.69C4287.75 1593.95 4293.14 1590.24 4299.63 1587.54C4306.17 1584.84 4313.27 1583.49 4320.94 1583.49C4331.73 1583.49 4339.81 1585.86 4345.16 1590.59C4350.51 1595.28 4353.89 1601.53 4355.31 1609.34Z" fill="#737370"/>
<path d="M4290.92 4694.74L4040.92 4804.83V4732.91L4212.09 4664.2L4209.78 4667.93V4659.05L4212.09 4662.78L4040.92 4594.07V4522.15L4290.92 4632.24V4694.74ZM4383.07 4633.84V4570.63H4628.28V4633.84H4383.07ZM4383.07 4751.74V4688.53H4628.28V4751.74H4383.07ZM4815.38 4779.08V4718.53L4967.19 4479.36H5019.39V4563.17H4988.5L4892.8 4714.63V4717.47H5108.53V4779.08H4815.38ZM4989.92 4843V4760.61L4991.34 4733.8V4479.36H5063.43V4843H4989.92Z" fill="#006CA9"/>
</svg>
